<svg xmlns="http://www.w3.org/2000/svg" width="2500" height="2500" viewBox="0 0 700 700" version="1.1"><g transform="translate(0,403)"><path d="M208.851-153.532V46.21H78.686v-199.742" fill="#00bc8e" fill-opacity="1" fill-rule="nonzero"/><path d="M195.077-2.704q0 13.374-7.223 20.922-7.698 7.794-18.537 7.794-10.717-.006-18.297-7.554Q143.45 10.9 143.45.21v-48.95h11.65v18.601h17.13v11.624H155.1V.21q0 5.921 4.193 10.055a13.87 13.87 0 0 0 10.024 4.124q5.953 0 10.023-4.182 4.086-4.188 4.086-12.91z" fill="#ffffff" fill-opacity="1" fill-rule="nonzero"/><path d="M144.087.154q0 10.7-7.58 18.286-7.575 7.57-18.174 7.57c-14.286 0-25.883-14.174-25.883-14.174V-48.74h11.661v27.44a25.34 25.34 0 0 1 14.222-4.3q10.605 0 18.174 7.57 7.586 7.564 7.58 18.185m-11.655 0q0-5.852-4.134-9.98a13.6 13.6 0 0 0-9.965-4.167 13.76 13.76 0 0 0-10.024 4.166 13.5 13.5 0 0 0-4.198 9.981q0 5.943 4.198 10.093a13.76 13.76 0 0 0 10.024 4.14q5.814 0 9.965-4.14 4.128-4.15 4.134-10.093" fill="#ffffff" fill-opacity="1" fill-rule="nonzero"/><path d="M456.128 11.806a12.7 12.7 0 0 1-9.484 3.952q-5.521 0-9.49-3.9a12.8 12.8 0 0 1-3.974-9.521v-14.152h16.222v-11.01H433.18v-11.72h-11.032V2.337q0 10.13 7.175 17.278 7.164 7.154 17.32 7.154 10.259 0 17.54-7.373 6.844-7.153 6.85-19.812h-11.048q.005 8.253-3.857 12.222M295.254-22.309q-10.114 0-17.256 7.143-7.154 7.154-7.16 17.156 0 10.103 7.16 17.251 7.142 7.148 17.256 7.148 10.008 0 17.156-7.148t7.143-17.251q0-10.002-7.143-17.156-7.148-7.143-17.156-7.143m9.405 33.82a12.8 12.8 0 0 1-9.405 3.91q-5.606 0-9.51-3.91a12.96 12.96 0 0 1-3.9-9.521q0-5.51 3.9-9.421a12.96 12.96 0 0 1 9.51-3.915q5.5.005 9.405 3.915a12.8 12.8 0 0 1 3.91 9.42q0 5.612-3.91 9.523m245.717-22.986q5.932 0 11.656 6.358l8.573-6.844q-9.122-10.482-20.229-10.477-10.007 0-17.155 7.143t-7.143 17.14q0 10.124 7.143 17.262 7.148 7.143 17.155 7.137 10.002 0 19.023-8.882l-7.484-8.001q-5.932 5.921-11.539 5.926-5.494 0-9.399-3.91a12.96 12.96 0 0 1-3.91-9.532q0-5.5 3.91-9.416a12.8 12.8 0 0 1 9.4-3.904m63.917-2.878q-7.02-7.03-16.84-7.025-7.138 0-13.177 3.984v-16.67H573.47v60.509h10.807V2.473q0-5.41 3.873-9.245 3.905-3.835 9.303-3.83 5.393-.005 9.229 3.83a12.8 12.8 0 0 1 3.835 9.346v23.872h10.797V2.596q0-9.938-7.02-16.948m-370.368-7.651q-7.186-.005-13.283 4.022v-16.9h-10.904v47.867s10.834 13.26 24.186 13.26q9.923 0 16.996-7.073 7.09-7.084 7.09-17.107 0-9.917-7.09-16.99-7.073-7.079-16.995-7.079m9.319 33.516a12.7 12.7 0 0 1-9.32 3.868q-5.446 0-9.367-3.868a12.8 12.8 0 0 1-3.915-9.447q-.006-5.452 3.915-9.325 3.921-3.883 9.367-3.883 5.458 0 9.32 3.883a12.8 12.8 0 0 1 3.867 9.325q0 5.564-3.867 9.447m105.5-29.495a22.57 22.57 0 0 0-12.947-4.023q-9.666 0-16.563 7.08-6.908 7.073-6.903 16.99-.005 10.023 6.903 17.107 6.897 7.068 16.563 7.073c13.005 0 23.568-13.256 23.568-13.256v-47.87h-10.621Zm-3.82 29.494q-3.825 3.867-9.127 3.867-5.313 0-9.08-3.867a13.07 13.07 0 0 1-3.776-9.448q0-5.446 3.777-9.324a12.16 12.16 0 0 1 9.08-3.878q5.301-.006 9.126 3.878a12.8 12.8 0 0 1 3.82 9.324q0 5.57-3.82 9.448M498.48-22.483q-10.119 0-17.262 7.148t-7.148 17.15q0 10.109 7.148 17.257 7.143 7.148 17.262 7.143 10.008 0 17.15-7.143a23.74 23.74 0 0 0 6.066-9.874H509.64a14.4 14.4 0 0 1-1.766 2.14 12.8 12.8 0 0 1-9.394 3.904 12.9 12.9 0 0 1-9.51-3.905 12.8 12.8 0 0 1-3.73-7.207h34.098v-.005h3.334q.107-1.141.107-2.31 0-10.002-7.148-17.15-7.143-7.148-17.15-7.148m0 10.973q5.494 0 9.393 3.91 1.68 1.67 2.636 3.654h-24.17q.944-1.984 2.63-3.654a12.9 12.9 0 0 1 9.51-3.91m-80.876 22.704V-22.31H407.25V4.996c0 6.043-5.174 10.94-11.56 10.94s-11.554-4.897-11.554-10.94v-27.34H372.96V1.993q0 10.21 6.551 17.31.97 1.035 1.995 1.932l1.552 1.242a20.16 20.16 0 0 0 12.168 3.91q6.732 0 12.259-3.926v.646q0 5.612-3.644 9.527-3.643 3.894-8.705 3.9-5.159-.006-8.706-3.958-2.049-2.294-2.902-6.028H373.2c.806 5.547 2.737 10.082 5.842 13.613q6.678 7.372 16.094 7.372 9.319 0 15.896-7.153 6.428-6.988 6.572-16.809h.01V11.194Z" fill="#292829" fill-opacity="1" fill-rule="nonzero"/></g></svg>