<?xml version="1.0" encoding="UTF-8" standalone="no"?>
<!-- Created with Inkscape (http://www.inkscape.org/) -->

<svg
   xmlns:dc="http://purl.org/dc/elements/1.1/"
   xmlns:cc="http://creativecommons.org/ns#"
   xmlns:rdf="http://www.w3.org/1999/02/22-rdf-syntax-ns#"
   xmlns:svg="http://www.w3.org/2000/svg"
   xmlns="http://www.w3.org/2000/svg"
   xmlns:sodipodi="http://sodipodi.sourceforge.net/DTD/sodipodi-0.dtd"
   xmlns:inkscape="http://www.inkscape.org/namespaces/inkscape"
   version="1.1"
   id="svg2"
   xml:space="preserve"
   width="4096"
   height="4096"
   viewBox="0 0 4095.9999 4095.9999"
   sodipodi:docname="conect-car-logo.svg"
   inkscape:export-filename="G:\Users\suitedoalex\sites\conectcar-logo-0.png"
   inkscape:export-xdpi="96"
   inkscape:export-ydpi="96"
   inkscape:version="0.92.2 (5c3e80d, 2017-08-06)"><metadata
     id="metadata8"><rdf:RDF><cc:Work
         rdf:about=""><dc:format>image/svg+xml</dc:format><dc:type
           rdf:resource="http://purl.org/dc/dcmitype/StillImage" /><dc:title></dc:title></cc:Work></rdf:RDF></metadata><defs
     id="defs6"><clipPath
       clipPathUnits="userSpaceOnUse"
       id="clipPath18"><path
         d="M 0,0 H 779.527 V 1190.552 H 0 Z"
         id="path16"
         inkscape:connector-curvature="0" /></clipPath><clipPath
       clipPathUnits="userSpaceOnUse"
       id="clipPath32"><path
         d="M 0,0 H 779.527 V 1190.552 H 0 Z"
         id="path30"
         inkscape:connector-curvature="0" /></clipPath><clipPath
       clipPathUnits="userSpaceOnUse"
       id="clipPath40"><path
         d="M 0,1191.09 H 779.528 V 0.542786 H 0 Z"
         id="path38"
         inkscape:connector-curvature="0" /></clipPath><clipPath
       clipPathUnits="userSpaceOnUse"
       id="clipPath56"><path
         d="m 169.78,338.314 -3.941,-64.042 164.045,-78.329 37.473,11.417 -0.072,1.348 -1.918,7.307 1.408,2.226 -0.27,5.056 177.135,66.635 2.016,-58.519 170.944,26.109 -42.367,178.826 z"
         id="path54"
         inkscape:connector-curvature="0" /></clipPath><clipPath
       clipPathUnits="userSpaceOnUse"
       id="clipPath68"><path
         d="M 0,1190.551 H 779.528 V 0 H 0 Z"
         id="path66"
         inkscape:connector-curvature="0" /></clipPath><clipPath
       clipPathUnits="userSpaceOnUse"
       id="clipPath76"><path
         d="M 1731.26,-1373.779 H 951.733 v 1190.551 h 779.527 z"
         id="path74"
         inkscape:connector-curvature="0" /></clipPath><clipPath
       clipPathUnits="userSpaceOnUse"
       id="clipPath98"><path
         d="M 0,1190.551 H 779.528 V 0 H 0 Z"
         id="path96"
         inkscape:connector-curvature="0" /></clipPath></defs><sodipodi:namedview
     pagecolor="#ffffff"
     bordercolor="#666666"
     borderopacity="1"
     objecttolerance="10"
     gridtolerance="10"
     guidetolerance="10"
     inkscape:pageopacity="0"
     inkscape:pageshadow="2"
     inkscape:window-width="1600"
     inkscape:window-height="837"
     id="namedview4"
     showgrid="false"
     inkscape:zoom="0.04"
     inkscape:cx="5176.1004"
     inkscape:cy="1754.0946"
     inkscape:window-x="-8"
     inkscape:window-y="-8"
     inkscape:window-maximized="1"
     inkscape:current-layer="g94" /><g
     id="g10"
     inkscape:groupmode="layer"
     inkscape:label="conect-car-logo"
     transform="matrix(1.3333333,0,0,-1.3333333,0,4096)"><g
       id="g62"
       transform="matrix(12.232419,0,0,12.232419,-997.27277,17.098736)"><g
         id="g64"
         clip-path="url(#clipPath68)"><g
           id="g70"><g
             id="g72"
             clip-path="url(#clipPath76)"><g
               id="g78"
               transform="translate(2087.9941,2597.5493)"><path
                 d="m 0,0 -448.187,-3560.993 c -8.627,-68.545 -71.187,-117.118 -139.733,-108.491 l -1576.112,198.369 c -68.546,8.627 -117.119,71.188 -108.492,139.734 l 448.186,3560.991 c 8.627,68.546 71.187,117.119 139.733,108.492 L -108.492,139.733 C -39.946,131.106 8.627,68.545 0,0"
                 style="fill:#ff6a39;fill-opacity:1;fill-rule:nonzero;stroke:none"
                 id="path80"
                 inkscape:connector-curvature="0" /></g><g
               id="g82"
               transform="translate(161.0043,2898.3135)"><path
                 d="M 0,0 V -0.001 C -6.927,-18.124 -11.672,-37.12 -14.106,-56.46 l -448.186,-3560.99 c -4.086,-32.466 -1.673,-64.826 7.172,-96.182 8.526,-30.224 22.637,-58.156 41.941,-83.018 19.304,-24.864 42.867,-45.455 70.037,-61.205 28.186,-16.338 58.939,-26.695 91.404,-30.782 l 1576.113,-198.369 c 54.235,-6.826 109.792,5.045 156.437,33.425 45.814,27.875 81.557,70.73 100.645,120.673 6.925,18.123 11.67,37.118 14.104,56.459 l 448.186,3560.989 c 4.087,32.466 1.674,64.827 -7.171,96.182 -8.527,30.224 -22.638,58.156 -41.942,83.018 -19.303,24.864 -42.867,45.456 -70.037,61.205 -28.186,16.339 -58.938,26.695 -91.404,30.781 L 257.08,154.095 C 202.848,160.921 147.292,149.051 100.645,120.671 54.83,92.796 19.086,49.941 0,0 m 109.924,-42.013 c 20.098,52.591 74.111,86.695 132.46,79.351 l 1576.114,-198.369 c 68.545,-8.628 117.119,-71.188 108.492,-139.734 l -448.187,-3560.992 c -1.283,-10.195 -3.76,-19.95 -7.271,-29.139 -20.1,-52.591 -74.113,-86.696 -132.461,-79.352 l -1576.113,198.369 c -68.546,8.627 -117.12,71.188 -108.492,139.733 L 102.652,-71.153 c 1.283,10.195 3.76,19.95 7.272,29.14"
                 style="fill:#ff6a39;fill-opacity:1;fill-rule:nonzero;stroke:none"
                 id="path84"
                 inkscape:connector-curvature="0" /></g></g></g></g></g><g
       id="g92"
       style="fill:#808000"
       transform="matrix(12.232419,0,0,12.232419,-997.27277,17.098736)"><g
         id="g94"
         clip-path="url(#clipPath98)"
         style="fill:#808000"><g
           id="g100"
           transform="translate(131.8666,114.7481)"
           style="fill:#ff6339;fill-opacity:1"
           inkscape:export-filename="G:\Users\suitedoalex\sites\conectcar-logo-5.png"
           inkscape:export-xdpi="5.3610549"
           inkscape:export-ydpi="5.3610549"><path
             d="M 0,0 C 0.31,1.866 1.138,3.536 2.333,4.703 3.54,5.883 4.993,6.4 6.401,6.169 7.037,6.063 8.228,5.709 9.075,4.518 9.908,3.346 10.159,1.717 9.819,-0.324 9.534,-2.046 8.736,-3.703 7.631,-4.873 6.408,-6.167 4.905,-6.742 3.406,-6.491 2.015,-6.261 0.974,-5.481 0.393,-4.237 -0.136,-3.103 -0.272,-1.637 0,0 m 6.087,12.692 c -7.776,0 -14.103,-6.341 -14.103,-14.135 0,-5.599 3.091,-11.582 11.764,-11.582 8.731,0 14.135,7.338 14.135,14.135 0,8.539 -6.093,11.582 -11.796,11.582"
             style="fill:#ff6339;fill-opacity:1;fill-rule:nonzero;stroke:none"
             id="path102"
             inkscape:connector-curvature="0" /></g><g
           id="g104"
           transform="translate(186.1195,117.2491)"
           style="fill:#ff6339;fill-opacity:1"
           inkscape:export-filename="G:\Users\suitedoalex\sites\conectcar-logo-5.png"
           inkscape:export-xdpi="5.3610549"
           inkscape:export-ydpi="5.3610549"><path
             d="M 0,0 C 0.438,1.126 2.009,4.235 5.998,4.235 7.962,4.235 9.334,3.521 9.334,2.499 9.334,0.941 7.794,0.029 0,0 m 15.833,2.466 c 0,5.336 -4.62,7.725 -9.198,7.725 -8.051,0 -14.358,-6.209 -14.358,-14.135 0,-7.144 4.517,-11.581 11.79,-11.581 4.011,0 7.698,1.631 10.378,4.596 L 14.86,-10.47 9.693,-6.761 9.538,-7.017 C 9.475,-7.12 7.945,-9.57 4.462,-9.57 c -3.886,0 -4.925,2.727 -5.176,3.741 7.873,0.027 12.098,1.014 14.542,3.382 1.331,1.288 2.005,2.941 2.005,4.913"
             style="fill:#ff6339;fill-opacity:1;fill-rule:nonzero;stroke:none"
             id="path106"
             inkscape:connector-curvature="0" /></g><g
           id="g108"
           transform="translate(168.0028,127.6319)"
           style="fill:#ff6339;fill-opacity:1"
           inkscape:export-filename="G:\Users\suitedoalex\sites\conectcar-logo-5.png"
           inkscape:export-xdpi="5.3610549"
           inkscape:export-ydpi="5.3610549"><path
             d="m 0,0 c -3.334,0 -5.681,-1.7 -7.034,-3.078 l 0.395,2.448 h -6.829 l -4.048,-24.704 7.705,-0.006 1.931,11.832 c 0.631,3.86 2.804,6.453 5.407,6.453 0.791,0 1.393,-0.243 1.79,-0.722 0.632,-0.765 0.789,-2.184 0.441,-4.005 l -2.156,-13.552 6.783,-0.012 0.254,0.001 0.936,-0.003 2.597,15.673 c 0.447,2.722 -0.106,5.09 -1.6,6.85 C 5.132,-1.129 3.463,0 0,0"
             style="fill:#ff6339;fill-opacity:1;fill-rule:nonzero;stroke:none"
             id="path110"
             inkscape:connector-curvature="0" /></g><g
           id="g112"
           transform="translate(316.4648,127.3321)"
           style="fill:#293a89;fill-opacity:1"
           inkscape:export-filename="G:\Users\suitedoalex\sites\conectcar-logo-5.png"
           inkscape:export-xdpi="5.3610549"
           inkscape:export-ydpi="5.3610549"><path
             d="m 0,0 c -0.297,0.046 -0.771,0.102 -1.339,0.102 -3.3,0 -5.667,-1.705 -7.039,-3.079 l 0.434,2.647 h -6.833 l -4.036,-24.71 h 7.703 l 1.782,10.958 c 0.492,3.037 1.854,6.656 5.557,6.656 1.457,0 2.218,-0.471 2.245,-0.488 l 0.6,-0.405 1.348,8.254 z"
             style="fill:#293a89;fill-opacity:1;fill-rule:nonzero;stroke:none"
             id="path114"
             inkscape:connector-curvature="0" /></g><g
           id="g116"
           transform="translate(239.5141,133.8643)"
           style="fill:#ff6339;fill-opacity:1"
           inkscape:export-filename="G:\Users\suitedoalex\sites\conectcar-logo-5.png"
           inkscape:export-xdpi="5.3610549"
           inkscape:export-ydpi="5.3610549"><path
             d="M 0,0 -8.211,-1.245 -9.13,-6.862 h -3.228 l -1.085,-6.462 h 3.269 l -1.804,-10.902 c -0.323,-2.018 0.24,-4.053 1.545,-5.585 1.255,-1.47 3.033,-2.281 5.004,-2.281 2.814,0 4.374,0.508 4.439,0.53 l 0.159,0.052 1.006,6.122 -0.374,-0.054 c -0.008,-0.001 -0.762,-0.11 -1.507,-0.11 -0.735,0 -1.485,0.036 -1.848,0.462 -0.321,0.378 -0.377,1.046 -0.186,2.233 l 1.556,9.533 H 3.02 l 1.066,6.462 h -5.208 z"
             style="fill:#ff6339;fill-opacity:1;fill-rule:nonzero;stroke:none"
             id="path118"
             inkscape:connector-curvature="0" /></g><g
           id="g120"
           transform="translate(288.1083,120.1055)"
           style="fill:#293a89;fill-opacity:1"
           inkscape:export-filename="G:\Users\suitedoalex\sites\conectcar-logo-5.png"
           inkscape:export-xdpi="5.3610549"
           inkscape:export-ydpi="5.3610549"><path
             d="m 0,0 -0.629,-4.179 c -1.072,-6.507 -4.214,-7.21 -5.516,-7.21 -1.876,0 -3.137,1.563 -3.137,3.89 0,3.542 3.14,7.869 6.805,7.869 C -1.146,0.37 -0.332,0.127 0,0 m -0.813,7.328 c -9.101,0 -16.23,-7.047 -16.23,-16.043 0,-6.334 4.48,-9.648 8.904,-9.648 3.32,0 5.422,1.654 6.536,2.903 l -0.386,-2.353 6.833,0.002 L 8.699,5.754 8.74,6.002 8.497,6.065 C 8.448,6.078 3.621,7.328 -0.813,7.328"
             style="fill:#293a89;fill-opacity:1;fill-rule:nonzero;stroke:none"
             id="path122"
             inkscape:connector-curvature="0" /></g><g
           id="g124"
           transform="translate(218.142,127.4336)"
           style="fill:#ff6339;fill-opacity:1"
           inkscape:export-filename="G:\Users\suitedoalex\sites\conectcar-logo-5.png"
           inkscape:export-xdpi="5.3610549"
           inkscape:export-ydpi="5.3610549"><path
             d="m 0,0 c -6.954,0 -14.147,-5.274 -14.147,-14.102 0,-6.835 4.845,-11.608 11.782,-11.608 3.641,0 6.346,1.512 6.459,1.576 l 0.169,0.096 -0.958,5.674 -0.34,-0.18 c -0.632,-0.337 -1.919,-0.902 -3.435,-0.902 -3.687,0 -5.978,2.272 -5.978,5.93 0,3.992 3.345,7.238 7.456,7.238 1.825,0 3.412,-0.933 3.429,-0.943 l 0.348,-0.208 1.014,6.167 -0.183,0.091 C 5.519,-1.123 3.208,0 0,0"
             style="fill:#ff6339;fill-opacity:1;fill-rule:nonzero;stroke:none"
             id="path126"
             inkscape:connector-curvature="0" /></g><g
           id="g128"
           transform="translate(123.7182,134.8584)"
           style="fill:#ff6339;fill-opacity:1"
           inkscape:export-filename="G:\Users\suitedoalex\sites\conectcar-logo-5.png"
           inkscape:export-xdpi="5.3610549"
           inkscape:export-ydpi="5.3610549"><path
             d="m 0,0 c -0.131,0.061 -3.261,1.475 -7.239,1.475 -9.426,0 -19.176,-7.209 -19.176,-19.272 0,-7.073 4.161,-15.332 15.885,-15.332 4.283,0 8.046,1.9 8.203,1.982 l 0.18,0.091 -1.098,6.737 -0.338,-0.177 c -0.925,-0.484 -2.832,-1.295 -5.225,-1.295 -5.496,0 -9.048,3.447 -9.048,8.782 0,6.24 4.942,11.13 11.252,11.13 2.559,0 4.652,-1.063 5.232,-1.389 l 0.344,-0.193 1.22,7.373 z"
             style="fill:#ff6339;fill-opacity:1;fill-rule:nonzero;stroke:none"
             id="path130"
             inkscape:connector-curvature="0" /></g><g
           id="g132"
           transform="translate(270.9198,134.8584)"
           style="fill:#293a89;fill-opacity:1"
           inkscape:export-filename="G:\Users\suitedoalex\sites\conectcar-logo-5.png"
           inkscape:export-xdpi="5.3610549"
           inkscape:export-ydpi="5.3610549"><path
             d="m 0,0 c -0.131,0.061 -3.262,1.475 -7.239,1.475 -9.426,0 -19.176,-7.209 -19.176,-19.272 0,-7.073 4.16,-15.332 15.884,-15.332 4.284,0 8.047,1.9 8.204,1.982 l 0.179,0.091 -1.097,6.737 -0.338,-0.177 c -0.925,-0.484 -2.833,-1.295 -5.225,-1.295 -5.496,0 -9.048,3.447 -9.048,8.782 0,6.24 4.942,11.13 11.252,11.13 2.56,0 4.652,-1.062 5.232,-1.389 l 0.344,-0.193 1.22,7.373 z"
             style="fill:#293a89;fill-opacity:1;fill-rule:nonzero;stroke:none"
             id="path134"
             inkscape:connector-curvature="0" /></g><g
           id="g136"
           transform="translate(140.4818,133.5342)"
           style="fill:#293a89;fill-opacity:1"
           inkscape:export-filename="G:\Users\suitedoalex\sites\conectcar-logo-5.png"
           inkscape:export-xdpi="5.3610549"
           inkscape:export-ydpi="5.3610549"><path
             d="M 0,0 C 2.236,0 4.051,1.815 4.051,4.054 4.051,6.292 2.236,8.107 0,8.107 -2.237,8.107 -4.051,6.292 -4.051,4.054 -4.051,1.815 -2.237,0 0,0"
             style="fill:#293a89;fill-opacity:1;fill-rule:nonzero;stroke:none"
             id="path138"
             inkscape:connector-curvature="0" /></g><g
           id="g140"
           transform="translate(156.0619,143.2998)"
           style="fill:#293a89;fill-opacity:1"
           inkscape:export-filename="G:\Users\suitedoalex\sites\conectcar-logo-5.png"
           inkscape:export-xdpi="5.3610549"
           inkscape:export-ydpi="5.3610549"><path
             d="m 0,0 c -2.691,0 -4.88,-2.19 -4.88,-4.883 0,-2.692 2.189,-4.883 4.88,-4.883 2.691,0 4.88,2.191 4.88,4.883 C 4.88,-2.19 2.691,0 0,0"
             style="fill:#293a89;fill-opacity:1;fill-rule:nonzero;stroke:none"
             id="path142"
             inkscape:connector-curvature="0" /></g><g
           id="g144"
           transform="translate(173.3012,144.959)"
           style="fill:#293a89;fill-opacity:1"
           inkscape:export-filename="G:\Users\suitedoalex\sites\conectcar-logo-5.png"
           inkscape:export-xdpi="5.3610549"
           inkscape:export-ydpi="5.3610549"><path
             d="m 0,0 c -3.148,0 -5.71,-2.563 -5.71,-5.712 0,-3.15 2.562,-5.713 5.71,-5.713 3.148,0 5.709,2.563 5.709,5.713 C 5.709,-2.563 3.148,0 0,0"
             style="fill:#293a89;fill-opacity:1;fill-rule:nonzero;stroke:none"
             id="path146"
             inkscape:connector-curvature="0" /></g><g
           id="g148"
           transform="translate(192.1986,146.6172)"
           style="fill:#293a89;fill-opacity:1"
           inkscape:export-filename="G:\Users\suitedoalex\sites\conectcar-logo-5.png"
           inkscape:export-xdpi="5.3610549"
           inkscape:export-ydpi="5.3610549"><path
             d="m 0,0 c -3.606,0 -6.54,-2.935 -6.54,-6.541 0,-3.607 2.934,-6.542 6.54,-6.542 3.605,0 6.539,2.935 6.539,6.542 C 6.539,-2.935 3.605,0 0,0"
             style="fill:#293a89;fill-opacity:1;fill-rule:nonzero;stroke:none"
             id="path150"
             inkscape:connector-curvature="0" /></g><text
           xml:space="preserve"
           style="font-style:normal;font-variant:normal;font-weight:normal;font-stretch:normal;font-size:2.6159997px;line-height:1.25;font-family:Impact;-inkscape-font-specification:Impact;letter-spacing:0px;word-spacing:0px;fill:#000000;fill-opacity:1;stroke:none;stroke-width:0.06131249"
           x="118.37833"
           y="111.95174"
           id="text988"
           transform="scale(1,-1)"><tspan
             sodipodi:role="line"
             id="tspan986"
             x="118.37833"
             y="114.57056"
             style="fill:#000000;stroke-width:0.06131249" /></text>
<text
           xml:space="preserve"
           style="font-style:normal;font-variant:normal;font-weight:normal;font-stretch:normal;font-size:2.6159997px;line-height:1.25;font-family:Impact;-inkscape-font-specification:Impact;letter-spacing:0px;word-spacing:0px;fill:#000000;fill-opacity:1;stroke:none;stroke-width:0.06131249"
           x="107.20163"
           y="58.8783"
           id="text992"
           transform="scale(1,-1)"><tspan
             sodipodi:role="line"
             id="tspan990"
             x="107.20163"
             y="58.8783"
             style="stroke-width:0.06131249">dasda</tspan></text>
</g></g></g></svg>