<svg width="78" height="29" viewBox="0 0 78 29" fill="none" xmlns="http://www.w3.org/2000/svg">
<g clip-path="url(#clip0_64_5895)">
<path d="M18.183 15.5978H21.4795C21.0843 13.3245 19.9745 11.2951 18.3912 9.74622L16.1306 12.0466C17.1132 13.0055 17.8366 14.2273 18.183 15.5978Z" fill="url(#paint0_linear_64_5895)"/>
<path d="M10.8089 9.87885C12.8994 9.87885 14.7998 10.7248 16.1777 12.0931L18.4582 9.81257C16.4967 7.86028 13.7905 6.65295 10.8089 6.65295C10.7774 6.65295 10.746 6.65328 10.7146 6.65355L10.7427 9.87926C10.7648 9.87907 10.7868 9.87885 10.8089 9.87885Z" fill="url(#paint1_linear_64_5895)"/>
<path d="M10.809 9.87885V6.65295C7.79025 6.65295 5.06066 7.89055 3.09961 9.88591L5.40045 12.1469C6.77623 10.7471 8.69118 9.87885 10.809 9.87885Z" fill="url(#paint2_linear_64_5895)"/>
<path d="M3.22589 17.462C3.22589 15.368 4.07476 13.4723 5.44704 12.1001L3.16605 9.81909C1.20998 11.7751 0 14.4772 0 17.462C0 17.4935 0.000328455 17.5249 0.000596904 17.5563L3.22631 17.5282C3.22612 17.5061 3.22589 17.4841 3.22589 17.462Z" fill="url(#paint3_linear_64_5895)"/>
<path d="M3.22589 17.4619H0C0 20.4806 1.2376 23.2102 3.23296 25.1713L5.49398 22.8704C4.09413 21.4947 3.22589 19.5797 3.22589 17.4619Z" fill="url(#paint4_linear_64_5895)"/>
<path d="M10.8089 25.045C8.71489 25.045 6.81924 24.1961 5.44701 22.8239L3.16602 25.1049C5.122 27.0609 7.82408 28.2709 10.8089 28.2709C10.8404 28.2709 10.8718 28.2707 10.9032 28.2705L10.8751 25.0445C10.853 25.0447 10.831 25.045 10.8089 25.045Z" fill="url(#paint5_linear_64_5895)"/>
<path d="M16.8252 22.0786C15.439 23.8824 13.2598 25.045 10.8091 25.045V28.2709C14.3024 28.2709 17.4086 26.6137 19.3846 24.0426L16.8252 22.0786Z" fill="url(#paint6_linear_64_5895)"/>
<path d="M65.2965 15.5978H68.593C68.1978 13.3245 67.0881 11.2951 65.5047 9.74622L63.2441 12.0466C64.2268 13.0055 64.9501 14.2273 65.2965 15.5978Z" fill="url(#paint7_linear_64_5895)"/>
<path d="M57.9224 9.87885C60.0129 9.87885 61.9133 10.7248 63.2913 12.0931L65.5718 9.81257C63.6103 7.86028 60.904 6.65295 57.9224 6.65295C57.891 6.65295 57.8595 6.65328 57.8281 6.65355L57.8563 9.87926C57.8783 9.87907 57.9004 9.87885 57.9224 9.87885Z" fill="url(#paint8_linear_64_5895)"/>
<path d="M57.9225 9.87885V6.65295C54.9038 6.65295 52.1742 7.89055 50.2131 9.88591L52.514 12.1469C53.8897 10.7471 55.8047 9.87885 57.9225 9.87885Z" fill="url(#paint9_linear_64_5895)"/>
<path d="M50.3394 17.462C50.3394 15.368 51.1883 13.4723 52.5606 12.1001L50.2796 9.81909C48.3235 11.7751 47.1135 14.4772 47.1135 17.462C47.1135 17.4935 47.1139 17.5249 47.1141 17.5563L50.3398 17.5282C50.3397 17.5061 50.3394 17.4841 50.3394 17.462Z" fill="url(#paint10_linear_64_5895)"/>
<path d="M50.3394 17.4619H47.1135C47.1135 20.4806 48.3511 23.2102 50.3465 25.1713L52.6075 22.8704C51.2077 21.4947 50.3394 19.5797 50.3394 17.4619Z" fill="url(#paint11_linear_64_5895)"/>
<path d="M57.9224 25.045C55.8284 25.045 53.9328 24.1961 52.5605 22.8239L50.2795 25.1049C52.2355 27.0609 54.9376 28.2709 57.9224 28.2709C57.9539 28.2709 57.9853 28.2707 58.0168 28.2705L57.9886 25.0445C57.9666 25.0447 57.9445 25.045 57.9224 25.045Z" fill="url(#paint12_linear_64_5895)"/>
<path d="M63.9385 22.0786C62.5523 23.8824 60.3731 25.045 57.9224 25.045V28.2709C61.4157 28.2709 64.5219 26.6137 66.4978 24.0426L63.9385 22.0786Z" fill="url(#paint13_linear_64_5895)"/>
<path d="M75.0445 11.2906H71.8186V21.043H75.0445V11.2906Z" fill="url(#paint14_linear_64_5895)"/>
<path d="M75.0445 20.9927C75.0445 23.3209 76.117 24.326 78 25.6102L76.158 28.2553C73.4056 26.4475 71.8186 24.3971 71.8186 20.9927H75.0445Z" fill="url(#paint15_linear_64_5895)"/>
<path d="M35.1141 6.65625C32.3047 6.65625 29.7775 7.78026 27.9312 9.60139V16.1517C28.4177 13.5619 30.7123 9.88214 35.1112 9.88214C35.1921 9.88214 35.2726 9.88387 35.3528 9.88712V6.65938C35.2735 6.65733 35.1939 6.65625 35.1141 6.65625Z" fill="url(#paint16_linear_64_5895)"/>
<path d="M44.078 16.6522H40.8521L40.8521 15.5909C40.8521 12.4044 38.3161 9.93282 35.2068 9.88303V6.65686C40.0989 6.70596 44.078 10.6334 44.078 15.5909L44.078 16.6522Z" fill="url(#paint17_linear_64_5895)"/>
<path d="M27.9312 7.53308H24.7053V18.8237H27.9312V7.53308Z" fill="#B2B2B2"/>
<path d="M75.0445 0H71.8186V11.2906H75.0445V0Z" fill="#B2B2B2"/>
<path d="M44.0782 16.6522H40.8523V27.9428H44.0782V16.6522Z" fill="#B2B2B2"/>
<path d="M21.4793 15.5978H10.1887V18.8237H21.4793V15.5978Z" fill="#B2B2B2"/>
<path d="M68.5929 15.5978H57.3022V18.8237H68.5929V15.5978Z" fill="#B2B2B2"/>
</g>
<defs>
<linearGradient id="paint0_linear_64_5895" x1="17.5353" y1="10.8477" x2="19.9261" y2="15.412" gradientUnits="userSpaceOnUse">
<stop stop-color="#EC2603"/>
<stop offset="0.998742" stop-color="#E61400"/>
</linearGradient>
<linearGradient id="paint1_linear_64_5895" x1="10.9336" y1="7.85319" x2="17.3609" y2="10.6166" gradientUnits="userSpaceOnUse">
<stop stop-color="#EE2C04"/>
<stop offset="1" stop-color="#EC2603"/>
</linearGradient>
<linearGradient id="paint2_linear_64_5895" x1="10.6716" y1="7.78086" x2="4.27535" y2="10.7306" gradientUnits="userSpaceOnUse">
<stop stop-color="#EE2C04"/>
<stop offset="1" stop-color="#F33907"/>
</linearGradient>
<linearGradient id="paint3_linear_64_5895" x1="3.94639" y1="10.8865" x2="1.27612" y2="17.1896" gradientUnits="userSpaceOnUse">
<stop stop-color="#F33907"/>
<stop offset="1" stop-color="#F74509"/>
</linearGradient>
<linearGradient id="paint4_linear_64_5895" x1="1.2266" y1="17.637" x2="4.02107" y2="24.2816" gradientUnits="userSpaceOnUse">
<stop stop-color="#F74509"/>
<stop offset="1" stop-color="#FC530D"/>
</linearGradient>
<linearGradient id="paint5_linear_64_5895" x1="4.17976" y1="24.3972" x2="10.6381" y2="26.9433" gradientUnits="userSpaceOnUse">
<stop stop-color="#FC530D"/>
<stop offset="1" stop-color="#FF590E"/>
</linearGradient>
<linearGradient id="paint6_linear_64_5895" x1="11.1987" y1="28.5325" x2="17.0748" y2="22.6126" gradientUnits="userSpaceOnUse">
<stop offset="0.27" stop-color="#FF590E"/>
<stop offset="1" stop-color="#FF590E"/>
</linearGradient>
<linearGradient id="paint7_linear_64_5895" x1="66.7943" y1="14.6771" x2="64.7701" y2="11.1979" gradientUnits="userSpaceOnUse">
<stop stop-color="#0555FA"/>
<stop offset="1" stop-color="#0555FA"/>
</linearGradient>
<linearGradient id="paint8_linear_64_5895" x1="63.9588" y1="10.3292" x2="58.6029" y2="8.11519" gradientUnits="userSpaceOnUse">
<stop stop-color="#0555FA"/>
<stop offset="1" stop-color="#1976F2"/>
</linearGradient>
<linearGradient id="paint9_linear_64_5895" x1="51.7584" y1="10.4195" x2="57.1565" y2="8.1211" gradientUnits="userSpaceOnUse">
<stop stop-color="#2387EF"/>
<stop offset="1" stop-color="#1976F2"/>
</linearGradient>
<linearGradient id="paint10_linear_64_5895" x1="48.6023" y1="16.7092" x2="50.8163" y2="11.3954" gradientUnits="userSpaceOnUse">
<stop stop-color="#2D99EB"/>
<stop offset="1" stop-color="#2387EF"/>
</linearGradient>
<linearGradient id="paint11_linear_64_5895" x1="48.5861" y1="18.2488" x2="50.8845" y2="23.6047" gradientUnits="userSpaceOnUse">
<stop stop-color="#2D99EB"/>
<stop offset="1" stop-color="#39ACE8"/>
</linearGradient>
<linearGradient id="paint12_linear_64_5895" x1="51.3886" y1="24.4074" x2="57.6587" y2="26.9725" gradientUnits="userSpaceOnUse">
<stop stop-color="#39ACE8"/>
<stop offset="1" stop-color="#40B8E5"/>
</linearGradient>
<linearGradient id="paint13_linear_64_5895" x1="57.9161" y1="29.3028" x2="64.268" y2="22.3028" gradientUnits="userSpaceOnUse">
<stop offset="0.27" stop-color="#40B8E5"/>
<stop offset="1" stop-color="#41B9E6"/>
</linearGradient>
<linearGradient id="paint14_linear_64_5895" x1="73.4316" y1="11.3636" x2="73.4316" y2="21.0391" gradientUnits="userSpaceOnUse">
<stop stop-color="#008C5A"/>
<stop offset="1" stop-color="#55BE5A"/>
</linearGradient>
<linearGradient id="paint15_linear_64_5895" x1="74.6417" y1="23.8948" x2="77.5955" y2="26.3304" gradientUnits="userSpaceOnUse">
<stop stop-color="#55BE5A"/>
<stop offset="1" stop-color="#55BE5A"/>
</linearGradient>
<linearGradient id="paint16_linear_64_5895" x1="27.9312" y1="11.404" x2="35.3528" y2="11.404" gradientUnits="userSpaceOnUse">
<stop offset="0.0059601" stop-color="#FF0F64"/>
<stop offset="0.99486" stop-color="#FF2F78"/>
</linearGradient>
<linearGradient id="paint17_linear_64_5895" x1="39.6424" y1="10.2857" x2="39.6424" y2="16.356" gradientUnits="userSpaceOnUse">
<stop offset="0.00688876" stop-color="#FF2F78"/>
<stop offset="1" stop-color="#FF2F78"/>
</linearGradient>
<clipPath id="clip0_64_5895">
<rect width="78" height="28.2708" fill="white"/>
</clipPath>
</defs>
</svg>
