<?xml version="1.0" encoding="utf-8"?>
<!-- Generator: Adobe Illustrator 17.1.0, SVG Export Plug-In . SVG Version: 6.00 Build 0)  -->
<!DOCTYPE svg PUBLIC "-//W3C//DTD SVG 1.1 Basic//EN" "http://www.w3.org/Graphics/SVG/1.1/DTD/svg11-basic.dtd">
<svg version="1.1" baseProfile="basic" id="Camada_1"
	 xmlns="http://www.w3.org/2000/svg" xmlns:xlink="http://www.w3.org/1999/xlink" x="0px" y="0px" viewBox="0 0 1320.5 277"
	 xml:space="preserve">
<g>
	<path fill="#F61E22" d="M0,130.1c0.3-1.5,0.8-2.9,1-4.4c2.4-18.3,9.4-34.5,22.7-47.6c9.1-9,20.2-14.1,32.6-16.7
		c7.7-1.6,15.4-2.1,23.1-1.3c12.2,1.2,23.2,5.7,33,13c1.7,1.3,3.4,2.7,5,4.1c0.7,0.5,1.4,1,2.4,1.6c0.4-0.9,0.8-1.6,1.1-2.3
		c0.6-1.6,1.1-3.3,1.9-4.9c2.3-5.1,6.3-8.1,11.8-8.7c5.5-0.6,11-0.6,16.5,0.3c5.1,0.9,8.2,3.7,9.1,8.9c0.5,2.6,0.6,5.2,0.6,7.9
		c0.1,5.3,0,10.6,0,15.8c0,12.3,0.1,24.6,0.1,36.9c0.1,22.5,0.4,44.9,0.1,67.4c-0.2,18.5-6.1,35.2-17.7,49.7
		c-10.4,13-24.1,21-40.2,25c-4,1-8.1,1.6-12.2,2.5c-1.1,0.2-2.1,0.6-3.1,1c-6.9,0-13.8,0-20.6,0c-1.9-0.5-3.8-1.1-5.7-1.4
		c-12.9-2-25.4-5.5-37.3-11c-5.1-2.3-10.1-4.8-14.9-7.7c-5.7-3.4-7.3-8.4-4.8-14.4c2.3-5.8,5.7-10.9,9.9-15.5
		c2.2-2.5,5.1-3.3,8.5-2.8c3.1,0.5,5.8,1.8,8.4,3.3c5.6,3.1,11.5,5.7,17.6,7.6c13.7,4.4,27.6,5.3,41.6,1.7
		c13.6-3.5,22.2-12.1,25.6-25.8c1.5-6.1,1.8-12.3,1.5-18.6c0-0.5-0.3-1.3-0.6-1.4c-0.5-0.1-1.1,0.2-1.7,0.4
		c-0.3,0.1-0.5,0.4-0.7,0.6c-5.9,4.9-12,9.3-19.3,11.8c-12.1,4.1-24.4,5.7-37.1,3.6c-20.6-3.4-36.5-14-47.3-31.8
		c-5.8-9.6-8.7-20.2-9.9-31.3c-0.2-1.6-0.7-3.1-1-4.6C0,137.4,0,133.8,0,130.1z M45,134.9c0.2,2.6,0.2,5.3,0.5,7.9
		c0.3,2.6,0.8,5.2,1.5,7.8c3.4,12,11.1,19.7,23.4,22.6c9.5,2.3,18.8,1.3,27.6-2.8c7.6-3.4,13.2-8.9,16.5-16.7
		c4.1-9.8,5-19.9,2.1-30.3c-3.3-11.8-10.3-20.3-21.9-24.6c-8.4-3.2-17-3.3-25.7-0.8c-10.3,3-17.3,9.6-21.1,19.6
		C45.8,123.3,45,129,45,134.9z"/>
	<path fill="#F61E22" d="M449.3,0c2.3,0.3,4.6,0.7,6.8,1c5.6,0.8,8.2,3.3,9,8.9c0.5,3.3,0.8,6.7,0.8,10c0.1,13.4,0,26.7-0.1,40.1
		c0,5.4-0.1,10.9-0.1,16.3c0,0.8-0.4,2,0.7,2.3c0.6,0.1,1.4-0.4,2-0.9c5.9-4.8,12.2-9.1,19.1-12.3c8.6-4,17.7-5.3,27.1-5.3
		c10.7,0,21,1.6,30.7,6.3c16.1,7.8,26.5,20.5,31.6,37.6c3.1,10.3,4.9,20.8,5.5,31.6c0.7,12.3-0.5,24.5-4.5,36.2
		c-7.7,22.7-22.9,37.9-46.3,43.8c-23.1,5.9-44.2,1-62.9-13.9c-1.7-1.4-3.4-2.9-5.2-4.3c-0.1-0.1-0.3,0-0.7-0.1
		c-0.2,1-0.5,2.1-0.7,3.1c-0.5,2.5-1.2,5-2.6,7.2c-2.6,3.9-6.4,5.9-11,6.4c-5.7,0.6-11.3,0.5-17-0.5c-0.6-0.1-1.3-0.2-1.9-0.4
		c-4.6-1.1-6.8-3.7-7.2-8.4c-0.1-1.7-0.2-3.4-0.2-5c0-61.4,0-122.7,0-184.1c0-1.6,0-3.2,0.2-4.8c0.5-5.8,3.9-9.4,9.6-10.2
		c1.2-0.2,2.4-0.1,3.6-0.2c0.9-0.1,1.7-0.3,2.5-0.5C441.9,0,445.6,0,449.3,0z M539.2,138.8c0-7.4-1-13.4-3.5-19.7
		c-4.1-10.6-11.3-17.8-22.6-20.5c-4.6-1.1-9.3-1.5-14-1.2c-11,0.8-19.9,5.5-26,14.9c-4.9,7.5-7.4,15.7-7.4,24.7
		c0,7.1,1.4,14,3.6,20.7c2.5,7.3,7.1,13,13.7,17c6.5,4,13.7,5.7,21.3,5.4c13.8-0.5,23.8-6.8,30.2-19
		C538.1,154.1,539.3,146.6,539.2,138.8z"/>
	<path fill="#F61E22" d="M1320.5,77.8c-1.4,3.3-3,6.5-4.3,9.8c-17.3,44.3-34.5,88.6-53,132.4c-6,14.3-13.7,27.6-23.4,39.7
		c-8.4,10.5-19.5,16-32.8,17.2c-13.5,1.2-25.7-2.3-36.3-10.7c-1.9-1.5-3.7-3.3-5.3-5.2c-2.7-3.2-3.2-7-1.5-10.8
		c2.6-5.7,6.2-10.6,10.9-14.7c3.1-2.6,6.6-3.1,10.3-1.6c2.6,1,5.1,2.3,7.7,3.4c1.8,0.7,3.6,1.3,5.4,1.8c3.2,0.9,6.3,0.2,8.9-1.7
		c2.1-1.4,4-3.2,5.7-5c4.6-4.9,7.8-10.7,10.9-16.6c0.9-1.8,0.5-3.4-0.3-5.1c-2-4.3-3.9-8.6-5.9-12.9c-18-39.3-35.9-78.6-53.9-118
		c-0.5-1.2-1.1-2.3-1.4-3.6c-2.1-7.1,2.2-13.2,9.7-13.4c5.4-0.2,10.9-0.1,16.3-0.1c2.7,0,5.4,0.1,8.2,0c5.8-0.1,9.7,2.6,11.8,8
		c2.3,5.9,4.6,11.9,7,17.9c9.4,23.9,18.9,47.9,28.3,71.8c0.3,0.6,0.7,1.2,1,1.9c1.3-0.6,1.2-1.7,1.5-2.5c4.7-13.4,9.3-26.9,14-40.3
		c5.5-15.9,11-31.7,16.4-47.6c0.3-0.9,0.7-1.8,1-2.7c1.7-4.3,4.9-6.4,9.5-6.4c5.8,0,11.7,0,17.5,0c1.8,0,3.5-0.1,5.3,0
		c4.2,0.1,7.8,1.5,10.3,5.1c0.1,0.1,0.3,0.1,0.4,0.2C1320.5,71.4,1320.5,74.6,1320.5,77.8z"/>
	<path fill="#F61E22" d="M208.8,0c1.1,0.2,2.2,0.4,3.3,0.5c2.5,0.3,5,0.3,7.4,0.8c5.4,0.9,7.7,3.7,7.9,9.2
		c0.2,6.4,0.5,12.8,0.5,19.2C228,55,228,80.4,228,105.9c0,29.9,0,59.8-0.1,89.7c0,3.4-0.2,6.7-0.5,10.1c-0.4,4.7-2.6,7.3-7.3,7.7
		c-5.9,0.5-11.8,0.7-17.7,0.8c-2.9,0.1-5.7-0.4-8.6-0.7c-5-0.5-7.6-2.8-8.4-7.7c-0.6-3.7-1.1-7.5-1.1-11.2
		c-0.1-58.7-0.1-117.4,0-176.1c0-3.2,0.3-6.4,0.6-9.6c0.5-4.5,2.6-6.8,7-7.6c2.5-0.5,5.1-0.6,7.6-0.9c1-0.1,2-0.3,3-0.5
		C204.6,0,206.7,0,208.8,0z"/>
	<path fill="#F61E22" d="M818,200.2c0,0.9,0,1.7,0,2.6c0,16.2,0,32.5,0,48.7c0,4,0,8-0.1,12c-0.1,1.7-0.4,3.3-0.8,5
		c-1.2,4.4-3.9,6.7-8.4,6.9c-6.9,0.3-13.7,0.5-20.6,0.5c-2.1,0-4.3-0.4-6.4-0.9c-3-0.7-5.1-2.7-6-5.6c-0.7-2.1-1-4.3-1.3-6.5
		c-0.2-1.7-0.1-3.4-0.1-5c0-49.4,0-98.9,0-148.3c0-10.5-0.1-21,0-31.4c0-2.4,0.1-4.8,0.7-7.1c1-4,3.5-6.4,7.8-7.1
		c6.8-1,13.5-1.4,20.3-0.4c5.2,0.7,8.6,3.6,10.2,8.6c0.7,2.2,0.9,4.5,1.3,6.8c0.1,0.4,0,0.8,0.1,1.2c0.3,1.5,1.5,1.9,2.6,0.9
		c0.7-0.6,1.2-1.3,1.8-1.9c9.3-8.1,19.4-14.7,31.6-17.3c7.7-1.7,15.5-2,23.4-1.2c8,0.7,15.6,2.6,22.8,6
		c13.4,6.3,23.1,16.4,29.6,29.6c5,10.5,8.1,21.5,9.3,33.1c1.9,18.4-1.3,36-9.6,52.6c-9.4,18.8-24.6,30.2-45.3,34.3
		c-7.6,1.5-15.2,2.1-22.9,1.3c-8.5-0.9-16.5-3.5-24.1-7.5c-4.6-2.5-8.9-5.3-13-8.6c-0.6-0.5-1.4-0.9-2.1-1.4
		C818.4,200,818.2,200.1,818,200.2z M817.7,136.3c0.1,6.3,0.9,12.3,2.6,18.3c2.2,7.5,5.8,14.1,12.3,18.6c8.8,6.2,18.6,8.4,29.1,6.6
		c12.7-2.2,21.5-9.7,26.2-21.5c6.3-15.4,4.8-30.5-2.8-45.1c-3.5-6.7-9.1-11.4-16.3-13.7c-7.1-2.3-14.5-2.9-21.8-1.3
		c-14.3,3-23.3,12-27.4,25.9C818.6,128,818.3,132.2,817.7,136.3z"/>
	<path fill="#F61E22" d="M323.4,60c14.3-0.2,26.9,2,38.9,7.5c21.9,10.1,35.4,27,40.7,50.5c1.5,6.6,2.4,13.2,2.4,20
		c0.3,19.4-5.9,36.5-17.9,51.7c-10.7,13.7-24.8,21.8-41.5,25.8c-10,2.3-20,3.2-30.2,2.3c-12.6-1.1-24.3-5.2-35.2-11.6
		c-17.4-10.1-28-25.1-32.9-44.4c-2.6-10.2-3.7-20.6-2.8-31.1c0.9-10.7,4.1-20.8,9.2-30.3c11.2-20.8,28.5-33.3,51.5-38.4
		C311.9,60.6,318.2,59.7,323.4,60z M288.3,134.7c0,13.7,2.6,22.8,7.5,30.3c3.3,5,7.6,8.8,13,11.4c6.7,3.2,13.8,4.5,21.2,3.8
		c8.3-0.9,15.3-4.2,20.8-10.6c3.4-4,6.1-8.4,7.7-13.4c3-9.3,3.9-18.8,2-28.4c-0.5-2.6-1.2-5.1-2.1-7.6c-6-16.4-22.6-25.7-39.9-22.5
		c-10.6,2-18.3,7.9-23.8,17C290.2,121.9,288.4,130,288.3,134.7z"/>
	<path fill="#F61E22" d="M758.2,137.9c0,21.5-7,38.9-20.1,54.1c-10.6,12.3-24,19.8-39.8,23.4c-9.6,2.2-19.3,3.1-29.1,2.3
		c-15.4-1.2-29.4-6.5-42-15.4c-15.4-10.8-24.2-25.8-28.1-43.9c-2-9.3-2.7-18.7-1.9-28.1c1.2-13.3,5.8-25.5,13.3-36.6
		c11.7-17.3,28-27.4,48.2-31.7c10.5-2.3,21.1-2.3,31.7-1c13.2,1.6,25.3,5.9,36.2,13.5c15.8,11.1,25.2,26.2,29.3,44.9
		C757.4,126,758,132.7,758.2,137.9z M713.9,138.7c0.1-7-1.3-13.8-3.9-20.4c-3.3-8.2-8.6-14.6-17-17.9c-8.2-3.3-16.6-4-25.2-1.7
		c-12,3.1-19.9,11.1-24.1,22.5c-4.3,11.8-4.2,23.9,0,35.7c3.5,9.8,10.1,16.9,19.9,20.8c6.8,2.7,13.8,3.2,21,2
		c11.1-1.9,19.2-7.9,24-18.2C712.1,154.3,713.9,146.7,713.9,138.7z"/>
	<path fill="#F61E22" d="M1120.1,196.1c-1.8,0.1-2.4,1.2-3.3,2.1c-5.6,5.7-12,10.3-19.2,13.7c-6.3,2.9-13,4.5-19.8,5.4
		c-9.3,1.2-18.5,1-27.6-1.4c-6.7-1.7-13.1-4.2-18.8-8.2c-10.5-7.3-16.1-17.5-17.6-30.1c-0.7-6.3-0.4-12.5,1.2-18.6
		c2.7-10.5,8.9-18.5,18-24.3c7.7-5,16.2-7.9,25.2-9.5c10.3-1.8,20.7-1.7,31.1-0.6c8,0.8,16,2.4,23.8,4.1c2.5,0.6,3,0.2,3-2.4
		c0-4.4-0.7-8.6-2.1-12.7c-3.5-9.9-10.6-16-20.9-17.7c-15.1-2.6-29.8-1.2-43.7,5.9c-3,1.5-6.2,2.6-9.6,2.8c-4,0.3-7.3-0.9-9.6-4.2
		c-2-3-3.9-6-5.8-9.1c-0.2-0.3-0.3-0.6-0.4-0.9c-3-6.2-1.9-10.7,3.8-14.5c5.3-3.5,10.8-6.5,16.7-8.9c13.1-5.5,26.9-8.1,41.1-8
		c12.8,0.1,25.1,2.8,36.8,7.7c16.9,7.1,27.4,19.9,32.4,37.4c2,7.1,2.8,14.3,2.8,21.6c0,24.9-0.1,49.7-0.2,74.6
		c0,1.9-0.2,3.8-0.6,5.7c-0.7,3.4-2.9,5.8-6.2,6.7c-2.8,0.7-5.6,1.2-8.5,1.4c-3.4,0.2-6.9,0-10.3-0.4c-4-0.5-7-2.7-8.3-6.7
		c-1-2.9-1.7-5.8-2.6-8.7C1120.8,197.7,1120.4,196.9,1120.1,196.1z M1084.8,151c-2.5,0.2-5.1,0.3-7.6,0.7c-3.4,0.6-6.8,1.2-10,2.4
		c-6,2.1-9.9,6.6-11.8,12.7c-0.3,1-0.5,2.1-0.3,3c0.9,4,2.6,7.7,5.7,10.6c4.2,4,9.5,5.5,15.1,5.8c13.5,0.6,24.2-4.9,32.3-15.5
		c2.6-3.5,4.4-7.4,5.3-11.7c0.5-2.4,0.1-3.2-2.1-3.8C1102.7,153.1,1093.9,151.3,1084.8,151z"/>
	<path fill="#F61E22" d="M953.4,109c0-26.5,0-52.9,0-79.4c0-6.6,0.1-13.3-0.1-19.9c-0.3-7.3,4-10.7,11.1-8.5
		c5.8,1.9,11.6,4.1,17.4,6.2c1.2,0.4,2.3,1,3.6,1.4c6.5,2.3,9.3,7.2,9.7,13.8c0.1,1.3,0.1,2.6,0.1,3.8c0,12.1,0,24.2,0,36.2
		c0,43.1,0,86.2,0,129.3c0,1.9-0.1,3.8-0.4,5.7c-0.9,5.1-3.7,8.9-8.4,11c-6.6,2.9-13.3,5.4-20,7.9c-2.4,0.9-5,1.1-7.5,0.4
		c-3.4-0.9-5.2-3-5.3-6.5c-0.1-3.4,0-6.9,0-10.3c0-14.4,0-28.8,0-43.2C953.3,141,953.3,125,953.4,109C953.4,109,953.4,109,953.4,109
		z"/>
</g>
</svg>
