<svg xmlns:dc="http://purl.org/dc/elements/1.1/" xmlns:cc="http://creativecommons.org/ns#" xmlns:rdf="http://www.w3.org/1999/02/22-rdf-syntax-ns#" xmlns:svg="http://www.w3.org/2000/svg" xmlns="http://www.w3.org/2000/svg" viewBox="0 0 550.90668 299.49332" height="299.49332" width="550.90668" xml:space="preserve" id="svg2" version="1.1" xmlns:xlink="http://www.w3.org/1999/xlink">
 <metadata id="metadata8">
  <rdf:RDF>
   <cc:Work rdf:about="">
    <dc:format>
     image/svg+xml
    </dc:format>
    <dc:type rdf:resource="http://purl.org/dc/dcmitype/StillImage">
    </dc:type>
   </cc:Work>
  </rdf:RDF>
 </metadata>
 <defs id="defs6">
 </defs>
 <g transform="matrix(1.3333333,0,0,-1.3333333,0,299.49333)" id="g10">
  <g transform="scale(0.1)" id="g12">
   <path id="path14" style="fill:#6d389e;fill-opacity:1;fill-rule:nonzero;stroke:none" d="m 23.5742,1320.82 c -5.4609,-100.36 0,-202.3 0,-301.69 0,-201.931 0,-403.849 0,-605.778 0,-118.473 0,-238.821 0,-357.2934 0,-0.0586 0,0 0,0 H 563.484 c 0,0 0.371,474.4104 0,882.2934 -0.254,274.548 -2.019,519.238 0,569.448 9.563,238.02 74.786,393.53 196.516,520.72 -9.348,0.37 -18.723,0.61 -28.145,0.61 -263.031,0 -509.691,-150.63 -630.097,-384.47 C 49.1406,1542.48 29.6563,1432.63 23.5742,1320.82">
   </path>
   <path id="path16" style="fill:#6d389e;fill-opacity:1;fill-rule:nonzero;stroke:none" d="m 1261.65,2242 c -201.94,0 -373.681,-78.96 -503.087,-214.17 402.297,0 662.777,-273.95 677.317,-710.22 3.34,-100.1 4.38,-635.719 4.38,-635.719 V 56.0586 h 539.88 c 0,0 0,433.4924 0,846.0504 0,255.731 2.04,477.151 -15.78,629.591 -49.77,426 -310.13,710.3 -702.71,710.3">
   </path>
   <path id="path18" style="fill:#6d389e;fill-opacity:1;fill-rule:nonzero;stroke:none" d="m 4108.23,925.422 c 5.46,100.348 0,202.288 0,301.678 0,201.93 0,403.85 0,605.78 0,118.47 0,238.82 0,357.3 0,0.05 0,0 0,0 h -539.91 c 0,0 -0.37,-474.43 0,-882.3 0.25,-274.55 2.02,-519.239 0,-569.458 -9.56,-238 -74.79,-393.524 -196.52,-520.711 9.35,-0.371 18.72,-0.609 28.15,-0.609 263.03,0 509.69,150.628 630.1,384.468 52.61,102.18 72.1,212.032 78.18,323.852">
   </path>
   <path id="path20" style="fill:#6d389e;fill-opacity:1;fill-rule:nonzero;stroke:none" d="m 2870.15,4.21875 c 201.95,0 373.69,78.97265 503.09,214.17925 -402.3,0 -662.77,273.954 -677.31,710.223 -3.34,100.099 -4.75,348.489 -4.75,636.239 0,314.55 0,625.83 0,625.83 l -539.52,-0.51 c 0,0 0,-433.5 0,-846.06 0,-255.74 -2.03,-477.14 15.78,-629.581 C 2217.21,288.531 2477.58,4.21875 2870.15,4.21875">
   </path>
  </g>
 </g>
</svg>