<svg width="56" height="56" viewBox="0 0 56 56" fill="none" xmlns="http://www.w3.org/2000/svg">
<path d="M3.94165 26.8407C3.94165 39.9517 15.2202 47.8495 28.9997 47.8495C41.5929 47.8495 51.2416 38.8743 51.2416 31.6142C51.2416 24.8034 46.8854 21.5186 41.2381 17.8364C36.1605 14.5266 32.2849 7.30664 21.8422 7.30664C10.1097 7.30664 3.94165 17.8596 3.94165 26.8407Z" fill="url(#paint0_linear_1148_20679)"/>
<path d="M35.5055 22.0191C36.8501 22.0191 37.9338 20.9299 37.9338 19.5878C37.9338 18.2495 36.8501 17.1611 35.5055 17.1611C34.1667 17.1611 33.0813 18.2495 33.0813 19.5878C33.0809 20.9299 34.1663 22.0191 35.5055 22.0191ZM35.5367 23.8182C34.1722 23.8182 33.0611 27.0658 33.0611 31.0707C33.0611 35.0769 34.1722 38.322 35.5367 38.322C36.9025 38.322 38.009 35.0764 38.009 31.0707C38.009 27.0658 36.9025 23.8182 35.5367 23.8182ZM24.5082 23.8102C20.4417 23.8102 17.7375 27.0287 17.7375 31.0627C17.7375 35.103 20.4417 38.3169 24.5082 38.3169C28.5642 38.3169 31.2653 35.103 31.2653 31.0627C31.2653 27.0287 28.5642 23.8102 24.5082 23.8102ZM24.5082 34.8982C22.6432 34.8982 21.6111 32.983 21.6111 31.0399C21.6111 29.0997 22.6432 27.2377 24.5082 27.2377C26.3664 27.2377 27.3965 29.1002 27.3965 31.0399C27.3965 32.9826 26.3664 34.8982 24.5082 34.8982Z" fill="white"/>
<defs>
<linearGradient id="paint0_linear_1148_20679" x1="39.8307" y1="14.9438" x2="11.8128" y2="42.9617" gradientUnits="userSpaceOnUse">
<stop stop-color="#009E0B"/>
<stop offset="0.1205" stop-color="#04A00B"/>
<stop offset="0.2454" stop-color="#11A40A"/>
<stop offset="0.3724" stop-color="#25AC09"/>
<stop offset="0.5008" stop-color="#43B708"/>
<stop offset="0.6304" stop-color="#68C607"/>
<stop offset="0.761" stop-color="#96D705"/>
<stop offset="0.8898" stop-color="#CBEB02"/>
<stop offset="1" stop-color="#FFFF00"/>
</linearGradient>
</defs>
</svg>
