<svg viewBox="0 0 683 683" xmlns="http://www.w3.org/2000/svg" fill-rule="evenodd" clip-rule="evenodd" stroke-linejoin="round" stroke-miterlimit="2"><path d="M670.665 152.444v373.332c0 80.948-65.72 146.666-146.666 146.666H150.666C69.718 672.442 4 606.724 4 525.776V152.444C4 71.497 69.718 5.777 150.666 5.777H524c80.946 0 146.666 65.72 146.666 146.667z" fill="#0064ff"/><path d="M289.922 439.275c-2.34-.974-6.172-5.274.206-17.268l14.816-30.982c.45-.938-.629-2.11-1.304-1.312l-12.96 13.031c-6.133 6.4-16.527 24.398-18.541 27.724l-15.742 26.037.068-.001c1.161 0 2.116.955 2.116 2.117 0 .364-.094.723-.273 1.04l-14.385 24.182c-3.511 5.996 2.801 10.185 3.653 8.807 22.615-36.445 35.772-33.54 35.772-33.54l7.547-17.483a1.747 1.747 0 00-.87-2.314c-.03-.01-.065-.03-.102-.038h-.001zm51.41-304.505c-129.294 0-234.11 104.822-234.11 234.115a233.049 233.049 0 0045.774 139.009c9.824-4.235 15.273-10.578 19.178-15.431l43.582-55.755a8.903 8.903 0 013.493-2.68l6.565-2.83 71.674-90.917 10.385-8.133 21.36-29.727a8.985 8.985 0 011.996-2.005l9.316-6.774a6.678 6.678 0 017.736-.066l11.312 7.946a44.418 44.418 0 0114.149 16.385l45.297 79.554a7.087 7.087 0 003.54 3.392c8.877 4.422 14.307 5.199 25.93 17.828 5.422 5.894 29.197 32.474 62.507 73.792a47.338 47.338 0 0018.805 15.244 233.058 233.058 0 0045.622-138.832c0-129.302-104.816-234.115-234.11-234.115zM170.358 381.786l-15.179-4.928-9.374 12.91v-15.955l-15.18-4.928 15.179-4.927v-15.956l9.374 12.91 15.18-4.936-9.374 12.91 9.374 12.9zm-3.596 52.205l-4.934 15.178-4.926-15.178h-15.958l12.905-9.38-4.927-15.168 12.905 9.379 12.915-9.379-4.937 15.169 12.915 9.379H166.76zm3.043-120.843l4.935 15.169-12.913-9.379-12.905 9.379 4.935-15.169-12.913-9.378h15.958l4.925-15.17 4.935 15.17h15.956l-12.913 9.378zm25.622-34.318l-9.374-12.91-15.18 4.927 9.383-12.91-9.383-12.902 15.179 4.929 9.384-12.911v15.955l15.178 4.929-15.178 4.927v15.956l-.009.01zm39.901-55.859l-4.934 15.169-4.926-15.169h-15.958l12.905-9.378-4.925-15.169 12.903 9.369 12.915-9.38-4.936 15.188 12.914 9.38h-15.958v-.01zm50.278-25.616l-9.383 12.903V194.31l-15.179-4.928 15.179-4.938V168.49l9.383 12.91 15.171-4.928-9.374 12.911 9.374 12.9-15.171-4.928v.001zm63.706-14.624l4.935 15.169-12.913-9.379-12.905 9.379 4.927-15.169-12.905-9.378h15.948l4.933-15.17 4.937 15.17h15.948l-12.905 9.378zm57.133 11.58v15.956l-9.374-12.912-15.179 4.93 9.374-12.901-9.374-12.912 15.179 4.928 9.374-12.91v15.956l15.178 4.936-15.178 4.929zm105.865 161.663l15.178 4.938L536.861 348v15.955l15.18 4.93-15.178 4.927v15.955l-9.374-12.9-15.18 4.928 9.382-12.91-9.382-12.912zM452.274 238.15l-4.927-15.178h-15.956l12.903-9.378-4.925-15.169 12.905 9.379 12.903-9.379-4.916 15.169 12.904 9.378h-15.958l-4.933 15.178zm34.976 40.681v-15.957l-15.18-4.927 15.178-4.919v-15.964l9.374 12.9 15.18-4.928-9.374 12.91 9.374 12.912-15.178-4.938-9.374 12.911zm28.654 24.95l4.934-15.18 4.937 15.18h15.947l-12.894 9.368 4.925 15.178-12.915-9.38-12.903 9.38 4.935-15.178-12.915-9.368h15.95zm9.87 130.21l-4.934 15.18-4.936-15.18h-15.957l12.923-9.378-4.934-15.169 12.904 9.379 12.913-9.379-4.934 15.169 12.903 9.379h-15.947zm-99.637 70.193c1.124-1.629 2.95-6.118-.478-14.428l-10.367-27.863c-1.404-3.552 1.676-5.706 3.747-3.373 0 0 19.581 22.579 24.637 32.005l9.656 16.03c8.306.534 31.23 1.161 53.293 1.161a64.04 64.04 0 01-6.144-7.092c-37.655-46.686-61.534-72.656-61.768-72.919-7.633-8.291-11.162-9.884-16.978-12.536-.841-.384-1.76-.796-2.706-1.246v7.083a.875.875 0 01-.865.974.872.872 0 01-.802-.534l-55.363-97.25-.15-.31a31.212 31.212 0 00-9.906-11.468l-5.404-3.794-26.407 60.927c3.133 0 5.712 2.58 5.712 5.714v.002c0 .787-.16 1.553-.469 2.276l-24.403 56.449h22.4a66.675 66.675 0 0125.247 4.965l5.898 2.417s-17.81 36.653-17.81 55.953a40.137 40.137 0 001.45 10.38h41.064l-1.9-11.56a438.352 438.352 0 0048.816 8.047v-.01z" fill="#fff" fill-rule="nonzero"/></svg>