<svg xmlns="http://www.w3.org/2000/svg" xmlns:xlink="http://www.w3.org/1999/xlink" viewBox="0 0 2000 440.7" style="enable-background:new 0 0 2000 440.7" xml:space="preserve"><defs><path id="a" d="M0 0h2000v440.7H0z"/></defs><clipPath id="b"><use xlink:href="#a" style="overflow:visible"/></clipPath><g style="clip-path:url(#b)"><path d="M1859.6 0c22.5.3 41.6 15.5 57 35.4 3.2 4.1 10.2 5.8 13.5 1.8C1960.2 0 2000 8.6 2000 47.6c2.3 79.1-115.8 194.6-144.6 101.9-12.6-40.8-42.3-68.4-43.6-98.8-1.3-27.4 20.4-51.1 47.8-50.7.1 0 0 0 0 0z" style="fill:#ea534a"/><path d="M15.1 396.3c0-28.8 4.7-35.5 18.4-47.3 11.3-9.4 12.8-18.9 12.8-35V201c0-24.1-1.4-31.7-18-32.2-17.4-.9-28.3-7.5-28.3-24.5-.5-21.7 10.9-38.8 27.9-53 13.2-10.9 31.2-18.4 48.7-18.4 23.6 0 38.3 12.8 38.8 31.7 0 11.3 2.4 13.2 7.1 13.2 6.6 0 9.4-8 15.1-15.6 11.3-18 31.7-33.1 61.9-33.1 64.3 0 104.5 52.5 104.5 134.3 0 81.8-35 138.5-111.1 138.5-40.7-.5-41.6-19.4-52.5-18.9-10.9.9-10.9 9.4-10.4 20.3.5 7.1 2.8 11.8 14.2 18.5 16.1 9 23.6 18.4 23.6 41.1 0 22.7-10.4 37.3-44.9 37.8-45.8 0-107.8-5.7-107.8-44.4zm186.8-189.6c-6.2-31.7-17.5-52.5-43-47.7-23.2 4.2-27 27.4-23.2 54.8 4.7 38.8 15.6 50.6 41.6 47.3 24.1-2.4 30.7-21.8 24.6-54.4zm425.6 53.4c0-26.5 5.2-48.2 5.2-77.1 0-14.2-2.4-12.8-18.9-13.2-17.5-.9-17.5-15.1-17.5-36.4 0-35.5 6.6-32.2 53.4-56.7 30.7-16.5 47.7-28.8 69.5-28.8 9.9 0 18.5 4.7 18.5 18.5 0 18.9 4.7 27.3 26 27.3 27.4 0 37.8 0 37.8 23.2 0 13.2-1.4 20.8-2.4 39.2-1.4 26.9-15.1 26.9-43 26.9-32.6 0-26-9.8-26.9 20.9 0 9.9-.9 19.8-.9 28.8 0 14.7 8.5 22.2 21.7 22.2 12.3 0 26-3.3 36.4-3.3 9 0 14.2 4.7 13.7 24.6-.5 42.1-27.9 71.9-77.5 71.9-55-.1-95.1-33.2-95.1-88zm193.3 39.2c0-17 .9-27.4 14.2-38.8 10.4-9 11.8-18.5 13.2-39.3.5-16.1.5-32.6.5-50.6 0-19.4 0-52-.5-70-.5-14.6-2.8-17.5-16.1-18.4-15.1-.5-25.5-5.7-25.5-24.1 0-38.3 143.7-95.8 143.7-21.8 0 12.8-1.4 33.6-3.8 70.5-2.8 36.4-7.1 90.8-5.2 124.3.9 13.7 2.8 19.4 11.8 27.4 9.9 8.5 15.1 17.5 15.1 37.8 0 35-11.8 48.2-74.2 48.2-55.2.2-73.2-4.5-73.2-45.2zm159.8-87.9c0-82.3 42.5-142.8 136.2-141.8 90.3.9 131.9 59.1 131.9 141.8 0 82.7-43 139-134.8 139s-133.3-55.3-133.3-139zm169.3-8.5c-12.8-40.7-25.1-56.7-49.7-50.1-22.7 5.7-28.8 29.8-19.4 69 9.4 36.4 25.5 49.2 49.2 43.5 25.6-5.6 30.3-27.4 19.9-62.4zm172.6 97.4c-8.5-26.5-23.6-71.4-36.9-112.1-6.6-21.7-9.9-26.9-18.9-34-5.7-4.7-8-12.3-8-33.1 0-36.9 13.7-45.4 79-45.4 57.7 0 68.1 11.4 68.1 40.7 0 17-1.9 25.1-10.4 33.1-6.1 6.2-7.1 11.3-4.7 23.6 4.7 21.7 10.9 46.3 16.1 65.7 2.8 12.8 3.8 17.5 8.5 17.5 6.1 0 7.6-7.1 11.8-19.9 7.1-22.2 8-24.1 16.1-54.4 4.3-16.1.5-24.6-8.5-33.1-4.7-5.7-9-13.2-9-31.2 0-28.8 7.1-41.1 67.6-41.1 43 0 46.8 12.3 46.8 38.3 0 20.3-5.2 28.8-10.9 35.5-8 9-10.4 13.2-16.5 29.8-18 46.8-26.5 71.9-44.9 123.4-11.8 32.2-15.6 39.7-46.3 39.7H1383c-36.9 0-46.8-3.3-60.5-43zm222.1-83.2c0-78.5 42.5-148 135.2-148 70.9 0 120.6 38.8 120.6 119.2 0 37.3-8 43-54.8 43h-96.9c-5.7 0-9.5 1.9-9.5 8.5 0 15.1 29.3 25.1 65.7 25.1 11.7 0 21.2-.9 29.3-2.2 10.6-1.8 47.5-11 53.6 12.1 1 3.9.8 8-.1 11.8-9.8 40.6-52.2 63.9-107.8 63.9-80.8-.1-135.2-53.5-135.3-133.4.1 0 0 0 0 0zm179.9-56.3c-2.6-20.6-20.9-38.8-44.5-37.6-30.1 1.2-42.6 20-40.6 48.8.7 11.2 5.9 12.9 17 12.9 62.1 0 70-8.2 68.1-24.1zm-1399.7 60c0-78.5 42.5-148 135.2-148 70.9 0 120.6 38.8 120.6 119.2 0 37.3-8 43-54.8 43h-96.9c-5.7 0-9.5 1.9-9.5 8.5 0 15.1 29.3 25.1 65.7 25.1 11.7 0 21.2-.9 29.3-2.2 10.6-1.8 47.5-11 53.6 12.1 1 3.9.8 8-.1 11.8-9.8 40.6-52.2 63.9-107.7 63.9-81 0-135.4-53.4-135.4-133.4zm179.8-56.2c-2.6-20.6-21-38.8-44.5-37.6-30.1 1.2-42.6 20-40.6 48.8.7 11.2 5.9 12.9 17 12.9 62.2 0 70.1-8.2 68.1-24.1z" style="fill:#4e2096"/></g></svg>