<?xml version="1.0" encoding="UTF-8"?> <svg xmlns="http://www.w3.org/2000/svg" version="1.2" viewBox="0 0 138 32" width="138" height="32"><style>.A{fill:#00a1fc}</style><path fill-rule="evenodd" class="A" d="m138 19.9c0 6.7-4.9 11.6-11.7 11.6c-6.9 0-11.7-4.9-11.7-11.6c0-6.6 4.8-11.5 11.7-11.5c6.8 0 11.7 4.9 11.7 11.5zm-5.5 0c0-4-2.5-6.8-6.2-6.8c-3.7 0-6.2 2.8-6.2 6.8c0 4.1 2.5 6.9 6.2 6.9c3.7 0 6.2-2.8 6.2-6.9z"></path><path class="A" d="m106.7 2v6.7h6.3v4.6h-6.3v9.5c0 2.2 1.2 3.4 3.3 3.4h3v4.9h-3.7c-4.8 0-8-2.8-8-7.8v-21.3z"></path><path fill-rule="evenodd" class="A" d="m83 19.9c0 6.7-4.9 11.6-11.7 11.6c-6.9 0-11.7-4.9-11.7-11.6c0-6.6 4.8-11.5 11.7-11.5c6.8 0 11.7 4.9 11.7 11.5zm-5.5 0c0-4-2.5-6.8-6.2-6.8c-3.7 0-6.2 2.8-6.2 6.8c0 4.1 2.5 6.9 6.2 6.9c3.7 0 6.2-2.8 6.2-6.9z"></path><path fill-rule="evenodd" class="A" d="m59.4 9.7c0 5.6-3.9 9.6-10.3 9.6h-6.6v11.8h-6v-31.1h12.6c6.4 0 10.3 4 10.3 9.7zm-5.7 0c0-2.5-1.4-4.8-4.9-4.8h-6.3v9.5h6.3c3.5 0 4.9-2.3 4.9-4.7z"></path><path class="A" d="m85.4 31.1v-14.5c0-5 3.2-7.9 8.1-7.9h5v5h-4.4c-2 0-3.2 1.1-3.2 3.4v14z"></path><path fill-rule="evenodd" class="A" d="m30.7 3.7v23.7c0 2.1-1.6 3.7-3.7 3.7h-23.4c-2 0-3.6-1.6-3.6-3.7v-23.7c0-2 1.6-3.7 3.6-3.7h23.4c2.1 0 3.7 1.7 3.7 3.7zm-22.5 16.2q-0.1 0-0.1 0.1c-0.4 3.7-1.5 6.3-2.6 7.9c-0.1 0.1 0.1 0.2 0.2 0.2c20.5-9.4 18.2-4.8 15.4-1.9c-0.2 0.2 0.1 0.4 0.3 0.3c14.2-11.6-0.3-11.8-13.2-6.6zm-1.1-11.7c0 0.1 0.1 0.1 0.1 0.1c10.5-2.1 15 0.3 16.6 1.8c0.2 0.1 0.3-0.1 0.3-0.2c-5.6-7-16.3-6.8-19.9-6.8c-0.1 0-0.2 0.2 0 0.3c1 0.7 2 2.2 2.9 4.8zm20.4 8.4c-2-8.7-13.8-8-19.6-5.9q-0.1 0-0.1 0.1c0.3 1.7 0.5 3.4 0.5 5.4q0 0.5 0 1.1c0 0 0 0.1 0.1 0.1c7.1-2.3 16.1-4 18.9-0.7c0 0.1 0.2 0.1 0.2-0.1z"></path></svg> 