<svg width="96" height="48" viewBox="0 0 96 48" fill="none" xmlns="http://www.w3.org/2000/svg">
<g clip-path="url(#clip0_12839_1010)">
<path d="M31.889 25.2722C31.889 23.4432 30.4645 21.3741 28.0594 21.3741C24.8689 21.3741 23.8359 24.0988 23.8359 25.2722H31.889ZM44.8524 38.179L47.9489 38.2743C50.2113 38.3226 51.3394 39.0747 51.3394 40.7177C51.3394 42.5962 49.3247 43.7237 46.4292 43.7237C43.2839 43.7237 41.3203 42.5008 41.3203 40.4835C41.3203 38.9322 42.1533 38.2743 42.8436 37.9918C43.4803 38.0872 44.1693 38.1342 44.8524 38.1778V38.179ZM46.1829 21.3741C48.6856 21.3741 50.2577 23.0183 50.2577 25.1804C50.2577 27.3425 48.7356 29.0727 46.2305 29.0727C43.8754 29.0727 42.2545 27.432 42.2545 25.1804C42.2545 22.9289 43.7278 21.3741 46.1829 21.3741ZM10.1823 22.8288C13.0789 22.8288 14.3571 20.9527 14.3571 18.9354C14.3571 16.7756 12.9325 15.0878 10.1823 15.0878H5.90761V22.83H10.1823V22.8288ZM77.4173 30.7652C78.499 31.7986 80.415 32.5036 82.3774 32.5036C84.3399 32.5036 85.4728 31.8445 85.4728 30.7652C85.4728 29.6859 84.8825 29.1198 81.1517 28.5148C78.3491 28.0428 75.5524 26.8223 75.5524 23.5362C75.5524 20.0158 79.3321 18.2786 82.6714 18.2786C85.5228 18.2786 87.8779 18.8424 89.5987 20.0629L87.484 22.6911C86.6034 22.0803 84.9801 21.3752 82.819 21.3752C80.6578 21.3752 79.7272 22.1273 79.7272 23.0666C79.7272 24.3789 80.6566 24.7084 83.1165 25.1345C86.9961 25.7454 90.0414 26.7281 90.0414 30.438C90.0414 33.4887 86.7985 35.8827 82.3786 35.8827C79.2369 35.8827 76.5342 35.1318 74.9633 33.4887L77.4184 30.7652H77.4173ZM56.9375 18.6058H61.311V28.8385C61.311 30.9511 62.5855 32.1258 64.5515 32.1258C67.2041 32.1258 68.6763 29.9166 68.6763 27.7615V18.6058H73.0438V35.3166H68.8702L68.7727 33.4875C67.7908 34.6586 66.1688 35.6932 63.5673 35.6932C59.1938 35.6932 56.9363 32.9202 56.9363 28.8855V18.6058H56.9375ZM35.7675 32.8272C35.3759 33.2992 33.2648 35.8815 28.1582 35.8815C23.3432 35.8815 19.4172 32.7837 19.4172 26.9165C19.4172 22.3615 22.7541 18.2774 28.0094 18.2774C33.2648 18.2774 36.2137 21.9849 36.2137 27.0542C36.2137 27.432 36.2137 27.811 36.1626 28.1805H23.8359C24.0323 30.4368 25.6043 32.3588 28.4521 32.3588C31.106 32.3588 32.5293 31.376 33.6111 30.438L35.7687 32.8272H35.7675ZM1.63647 11.8441H10.3775C16.4182 11.8441 18.8745 15.6963 18.8745 18.8412C18.8745 21.7495 17.45 24.24 14.3059 25.3193L19.5624 35.3177H14.551L10.0324 26.069H5.90642V35.3177H1.63647V11.8441ZM46.2805 18.2774C41.8106 18.2774 38.2737 20.9986 38.2737 25.1804C38.2737 27.246 38.9628 28.8855 40.1398 30.0131C38.8652 30.9052 38.175 32.1258 38.175 33.5334C38.175 34.9411 38.7176 36.0227 39.6018 36.7278C37.931 37.5705 36.9492 39.3077 36.9492 40.9496C36.9492 45.1761 40.9276 47.1476 45.9853 47.1476C51.0431 47.1476 55.7105 44.7536 55.7105 40.3375C55.7105 36.6783 53.0091 34.9423 48.8867 34.8469L45.2023 34.7516C43.3363 34.7081 42.3033 34.189 42.3033 33.0156C42.3033 32.5012 42.4985 32.0328 42.9923 31.655C43.9741 31.9857 45.1023 32.1717 46.3316 32.1717C50.9515 32.1717 54.2872 29.4011 54.2872 25.224C54.2872 23.8634 53.8945 22.7358 53.3066 21.7483L55.6629 20.0135L53.403 17.4759L50.7027 19.4038C49.3258 18.6505 47.7538 18.2763 46.2817 18.2763L46.2805 18.2774Z" fill="black"/>
<path d="M51.2729 8.18432C51.2729 10.2933 52.9799 12 55.0911 12C57.2024 12 58.9093 10.2933 58.9093 8.18432C58.9093 6.07536 57.1988 4.36363 55.0911 4.36363C52.9835 4.36363 51.2729 6.07536 51.2729 8.18432Z" fill="#E30613"/>
<path d="M44.3867 2.09478V10.2418C42.2529 9.85813 40.3072 8.75648 38.5149 5.6316L34.9602 7.49358C38.6708 13.9623 43.6072 14.3154 47.4178 14.3154H48.4293V0.567058L44.3855 2.09478H44.3867Z" fill="black"/>
<path d="M90.4626 18.1549H90.8137V16.1176H91.686V15.8233H89.5891V16.1176H90.4626V18.1549ZM91.9859 18.1549H92.3132L92.3965 16.3789L93.0736 17.4652H93.2486L93.9364 16.3659L94.0185 18.1549H94.3613L94.247 15.8233H93.9197L93.176 17.0368L92.4334 15.8233H92.0978L91.9859 18.1549Z" fill="black"/>
</g>
<defs>
<clipPath id="clip0_12839_1010">
<rect width="92.7273" height="46.5813" fill="white" transform="translate(1.63647 0.56706)"/>
</clipPath>
</defs>
</svg>
