<?xml version="1.0" encoding="UTF-8" standalone="no"?>
<svg
   xmlns:dc="http://purl.org/dc/elements/1.1/"
   xmlns:cc="http://creativecommons.org/ns#"
   xmlns:rdf="http://www.w3.org/1999/02/22-rdf-syntax-ns#"
   xmlns:svg="http://www.w3.org/2000/svg"
   xmlns="http://www.w3.org/2000/svg"
   xmlns:sodipodi="http://sodipodi.sourceforge.net/DTD/sodipodi-0.dtd"
   xmlns:inkscape="http://www.inkscape.org/namespaces/inkscape"
   version="1.1"
   width="141.7323"
   height="141.7323"
   id="svg14"
   viewBox="0 0 141.7323 141.7323"
   sodipodi:docname="sabesp-logo.svg"
   inkscape:version="0.92.4 (5da689c313, 2019-01-14)">
  <metadata
     id="metadata20">
    <rdf:RDF>
      <cc:Work
         rdf:about="">
        <dc:format>image/svg+xml</dc:format>
        <dc:type
           rdf:resource="http://purl.org/dc/dcmitype/StillImage" />
        <dc:title></dc:title>
      </cc:Work>
    </rdf:RDF>
  </metadata>
  <defs
     id="defs18" />
  <sodipodi:namedview
     pagecolor="#ffffff"
     bordercolor="#666666"
     borderopacity="1"
     objecttolerance="10"
     gridtolerance="10"
     guidetolerance="10"
     inkscape:pageopacity="0"
     inkscape:pageshadow="2"
     inkscape:window-width="1600"
     inkscape:window-height="837"
     id="namedview16"
     showgrid="false"
     inkscape:zoom="2.3548224"
     inkscape:cx="60.359815"
     inkscape:cy="102.00153"
     inkscape:window-x="-8"
     inkscape:window-y="-8"
     inkscape:window-maximized="1"
     inkscape:current-layer="svg14" />
  <g
     id="Layer1000"
     transform="matrix(1.2367603,0,0,1.2367603,-20.094726,-17.704872)">
    <path
       d="M 70.3668,75.8704 H 85.2322"
       style="fill:#ffffff;fill-rule:evenodd"
       id="path2"
       inkscape:connector-curvature="0" />
    <path
       d="m 64.3712,61.9706 12.757,5.4096 c 3.3898,1.4064 5.6977,4.7961 5.6977,8.5105 0,5.0847 -4.147,9.2318 -9.2317,9.2318 -5.0847,0 -9.2318,-4.1471 -9.2318,-9.2318 0,0 0,-0.0361 0,-0.0361 z"
       style="fill:none"
       id="path4"
       inkscape:connector-curvature="0" />
    <path
       d="m 53.2041,101.0519 h -1.7178 c -0.0172,-0.4687 -0.1801,-0.8289 -0.4945,-1.0804 -0.3116,-0.2515 -0.7575,-0.3773 -1.3377,-0.3773 -0.5145,0 -0.9261,0.1 -1.2348,0.3001 -0.3115,0.2029 -0.4659,0.463 -0.4659,0.7803 0,0.5459 0.7232,0.9632 2.1695,1.2462 l 0.04,0.009 c 1.3119,0.263 2.1666,0.566 2.5639,0.9061 0.3973,0.3401 0.5945,0.8403 0.5945,1.5063 0,0.8489 -0.2973,1.5034 -0.8918,1.9665 -0.5945,0.463 -1.4377,0.6946 -2.5324,0.6946 -1.2234,0 -2.1523,-0.2316 -2.7926,-0.6946 -0.6403,-0.4631 -1.0175,-1.1748 -1.1347,-2.1352 h 1.775 c 0.0114,0.5146 0.2029,0.9118 0.5745,1.1919 0.3716,0.283 0.8975,0.4231 1.5778,0.4231 0.5259,0 0.9375,-0.1029 1.2405,-0.3059 0.3001,-0.2029 0.4516,-0.4801 0.4516,-0.8317 0,-0.4973 -0.6088,-0.8746 -1.8265,-1.129 -0.1629,-0.0343 -0.2915,-0.0629 -0.3859,-0.0858 -1.2433,-0.2772 -2.0636,-0.5974 -2.4581,-0.9546 -0.3916,-0.3573 -0.5888,-0.8776 -0.5888,-1.5635 0,-0.8004 0.2916,-1.4206 0.8718,-1.8693 0.5802,-0.4459 1.392,-0.6689 2.4353,-0.6689 1.1232,0 1.9893,0.2315 2.6038,0.6917 0.6146,0.4602 0.9347,1.1205 0.9633,1.9808 z m 7.22,1.0947 c -0.2772,0.3002 -0.8746,0.5403 -1.7836,0.7203 -0.1972,0.0372 -0.3429,0.0686 -0.4458,0.0915 -0.626,0.1343 -1.0633,0.3087 -1.312,0.5259 -0.2487,0.2201 -0.3716,0.5231 -0.3716,0.9147 0,0.4115 0.1401,0.7431 0.4202,0.9918 0.2772,0.2487 0.6517,0.3716 1.1233,0.3716 0.786,0 1.3834,-0.243 1.7921,-0.7318 0.4088,-0.4887 0.6117,-1.209 0.6117,-2.1637 0,-0.1343 -0.0114,-0.3573 -0.0343,-0.6688 z m 1.7664,-0.4602 v 2.8783 c 0,0.4259 0.0286,0.8089 0.0886,1.1519 0.0572,0.3459 0.1487,0.6631 0.2716,0.9604 h -1.9008 c -0.0486,-0.1915 -0.0886,-0.383 -0.1171,-0.5831 -0.0258,-0.1972 -0.0458,-0.4087 -0.0572,-0.6317 -0.4202,0.5288 -0.8689,0.9204 -1.3491,1.1691 -0.4802,0.2487 -1.0204,0.3716 -1.6178,0.3716 -0.8632,0 -1.5549,-0.2373 -2.0723,-0.7118 -0.5173,-0.4744 -0.7746,-1.1061 -0.7746,-1.8921 0,-0.3344 0.0543,-0.6403 0.1601,-0.9175 0.1057,-0.2744 0.263,-0.5203 0.4773,-0.7318 0.4402,-0.4344 1.452,-0.7345 3.0327,-0.8946 0.1943,-0.0229 0.343,-0.04 0.443,-0.0515 0.5859,-0.06 1.0033,-0.1772 1.249,-0.3487 0.2459,-0.1686 0.3688,-0.4173 0.3688,-0.7488 0,-0.3345 -0.1515,-0.6031 -0.4545,-0.8061 -0.3001,-0.2029 -0.706,-0.3058 -1.2147,-0.3058 -0.5403,0 -0.9805,0.1143 -1.3149,0.3401 -0.3344,0.2258 -0.5373,0.5402 -0.6031,0.949 h -1.8493 c 0.1687,-0.8375 0.5631,-1.4635 1.1862,-1.8808 0.6203,-0.4145 1.4663,-0.6231 2.5325,-0.6231 1.2604,0 2.1608,0.2544 2.7039,0.7632 0.5402,0.5059 0.8117,1.3548 0.8117,2.5438 z M 68.7274,99.72 c -0.6431,0 -1.1633,0.2658 -1.5606,0.7945 -0.4001,0.5317 -0.6002,1.232 -0.6002,2.1009 0,0.9003 0.1972,1.6178 0.5916,2.1551 0.3916,0.5403 0.9147,0.8089 1.5692,0.8089 0.6289,0 1.1519,-0.2772 1.5692,-0.8289 0.4145,-0.5516 0.6231,-1.2576 0.6231,-2.1179 0,-0.8747 -0.2029,-1.5807 -0.6059,-2.1123 C 69.9079,99.9858 69.3791,99.72 68.7274,99.72 Z m -3.9615,-5.2679 h 1.835 l -0.0172,5.4022 c 0.3087,-0.5031 0.6917,-0.8775 1.1519,-1.1233 0.4602,-0.2459 1.0004,-0.3687 1.6207,-0.3687 1.0032,0 1.8378,0.4059 2.5009,1.2176 0.666,0.8118 0.9976,1.8464 0.9976,3.1012 0,1.2463 -0.3373,2.2781 -1.009,3.0956 -0.6717,0.8174 -1.5149,1.2262 -2.5239,1.2262 -0.6631,0 -1.229,-0.1487 -1.692,-0.4431 -0.4631,-0.2972 -0.8261,-0.7374 -1.089,-1.3234 l 0.0428,1.4406 h -1.8178 z m 17.6613,8.6406 h -6.4969 c 0.0429,0.8204 0.2916,1.4578 0.7403,1.9094 0.4488,0.4516 1.0547,0.6774 1.8122,0.6774 0.4745,0 0.8918,-0.1058 1.2491,-0.3173 0.3572,-0.2144 0.6288,-0.5116 0.8117,-0.8975 h 1.8179 c -0.2687,0.8032 -0.7346,1.4291 -1.3949,1.8722 -0.6631,0.443 -1.4549,0.666 -2.3838,0.666 -1.3834,0 -2.4752,-0.3859 -3.2727,-1.1605 -0.7975,-0.7717 -1.1977,-1.8207 -1.1977,-3.1441 0,-1.2834 0.3888,-2.3238 1.1691,-3.1213 0.7775,-0.7974 1.8007,-1.1976 3.0669,-1.1976 1.2891,0 2.2924,0.383 3.007,1.1462 0.7145,0.766 1.0718,1.8464 1.0718,3.2413 z m -1.8665,-1.2319 c -0.0771,-0.726 -0.3172,-1.2834 -0.7203,-1.6778 -0.403,-0.3916 -0.9346,-0.5888 -1.6006,-0.5888 -0.6031,0 -1.1147,0.2029 -1.5406,0.606 -0.423,0.4058 -0.6974,0.9575 -0.8203,1.6606 z m 10.307,-0.8089 h -1.7178 c -0.0171,-0.4687 -0.1801,-0.8289 -0.4945,-1.0804 -0.3116,-0.2515 -0.7575,-0.3773 -1.3377,-0.3773 -0.5145,0 -0.9261,0.1 -1.2348,0.3001 -0.3115,0.2029 -0.4659,0.463 -0.4659,0.7803 0,0.5459 0.7232,0.9632 2.1695,1.2462 l 0.04,0.009 c 1.3119,0.263 2.1666,0.566 2.5639,0.9061 0.3973,0.3401 0.5945,0.8403 0.5945,1.5063 0,0.8489 -0.2973,1.5034 -0.8918,1.9665 -0.5945,0.463 -1.4377,0.6946 -2.5324,0.6946 -1.2234,0 -2.1523,-0.2316 -2.7926,-0.6946 -0.6402,-0.4631 -1.0175,-1.1748 -1.1347,-2.1352 h 1.775 c 0.0114,0.5146 0.2029,0.9118 0.5745,1.1919 0.3716,0.283 0.8975,0.4231 1.5778,0.4231 0.5259,0 0.9375,-0.1029 1.2405,-0.3059 0.3001,-0.2029 0.4516,-0.4801 0.4516,-0.8317 0,-0.4973 -0.6088,-0.8746 -1.8265,-1.129 -0.1629,-0.0343 -0.2915,-0.0629 -0.3858,-0.0858 -1.2434,-0.2772 -2.0637,-0.5974 -2.4582,-0.9546 -0.3915,-0.3573 -0.5888,-0.8776 -0.5888,-1.5635 0,-0.8004 0.2916,-1.4206 0.8718,-1.8693 0.5803,-0.4459 1.392,-0.6689 2.4353,-0.6689 1.1233,0 1.9893,0.2315 2.6039,0.6917 0.6145,0.4602 0.9346,1.1205 0.9632,1.9808 z m 3.893,4.4761 0.0171,4.6504 h -1.835 V 98.7053 h 1.8179 l -0.0429,1.4234 c 0.2687,-0.586 0.6374,-1.0233 1.1062,-1.3148 0.4688,-0.2887 1.0375,-0.4345 1.7092,-0.4345 0.9976,0 1.8322,0.4087 2.4982,1.2262 0.6659,0.8175 1.0004,1.8493 1.0004,3.0927 0,1.2633 -0.3316,2.298 -0.9976,3.1069 -0.6631,0.8089 -1.5034,1.2148 -2.5181,1.2148 -0.6088,0 -1.1433,-0.1229 -1.6035,-0.3716 -0.4602,-0.2486 -0.8432,-0.6231 -1.1519,-1.1204 z m 2.1437,-5.7252 c -0.6545,0 -1.1776,0.2658 -1.5692,0.7946 -0.3944,0.5317 -0.5917,1.2434 -0.5917,2.1352 0,0.8803 0.2001,1.5892 0.6003,2.1265 0.3973,0.5345 0.9175,0.8032 1.5606,0.8032 0.646,0 1.1748,-0.2687 1.5807,-0.8089 0.4087,-0.5373 0.6116,-1.2405 0.6116,-2.1037 0,-0.866 -0.2086,-1.572 -0.6231,-2.1237 -0.4173,-0.5488 -0.9404,-0.8232 -1.5692,-0.8232 z"
       style="fill:#1b1918;fill-rule:evenodd"
       id="path6"
       inkscape:connector-curvature="0" />
    <g
       id="Layer1001">
      <path
         d="m 73.5228,61.9798 h 27.7143 c 0,0 0.0184,0.0992 0.0184,0.0992 0,15.2497 -12.4377,27.6874 -27.6874,27.6874 -15.2497,0 -27.6874,-12.4377 -27.6874,-27.6874 0,0 0,0 0,0 L 45.8399,57.1011 V 33.0615 l 18.5313,-0.0092 v 28.9183 l 12.757,5.4096 c 3.3898,1.4064 5.6977,4.7961 5.6977,8.5105 0,5.0847 -4.147,9.2318 -9.2317,9.2318 -5.0847,0 -9.2318,-4.1471 -9.2318,-9.2318 0,0 0,-0.0361 0,-0.0361 l 0.0088,-13.884 z"
         style="fill:#009edb;fill-rule:evenodd"
         id="path8"
         inkscape:connector-curvature="0" />
      <path
         d="M 101.2371,46.1852 V 34.704 c -2.9202,-0.9734 -6.1009,-1.6223 -9.2374,-1.6223 -15.2497,0 -27.6285,12.4009 -27.6285,27.6506 h 36.8659 l -12.6328,-5.204 c -3.5011,-1.3715 -5.8472,-4.8004 -5.8472,-8.5903 0,-5.0892 4.1507,-9.24 9.24,-9.24 5.0892,0 9.24,4.1147 9.24,9.2039 z"
         style="fill:#009edb;fill-rule:evenodd"
         id="path10"
         inkscape:connector-curvature="0" />
    </g>
  </g>
</svg>
