<svg fill="none" viewBox="0 0 1546 565" xmlns="http://www.w3.org/2000/svg">
<path clip-rule="evenodd" d="M1010.65 401.58V105.18C1010.65 4.58998 1116.36 -17.01 1191.82 11.68V68C1139.96 46.87 1081.69 51.74 1081.69 117.33H1166V173.6H1081.69V400.48L1010.65 401.58Z" fill="#FBBA00" fill-rule="evenodd"></path>
<path clip-rule="evenodd" d="M1345.34 73.37H1397.84L1408.62 117.37H1473.92V173.6H1416.41V304.6C1416.41 330.84 1427.74 343.973 1450.41 344H1486.41V400.24H1416.13C1368.94 400.24 1345.35 374.97 1345.35 324.43L1345.34 73.37Z" fill="#FBBA00" fill-rule="evenodd"></path>
<path d="M1291.2 117.35H1220.16V400.2H1291.2V117.35Z" fill="#FBBA00"></path>
<path d="M1291.2 14.98H1220.16V73.37H1291.2V14.98Z" fill="#FBBA00"></path>
<path clip-rule="evenodd" d="M1546 400.28C1483.58 498.7 1373.67 564.06 1248.51 564.06C1123.35 564.06 1013.51 498.7 951.06 400.27C1024.41 467.83 1130.52 510.27 1248.51 510.27C1366.5 510.27 1472.64 467.8 1546 400.27" fill="#FBBA00" fill-rule="evenodd"></path>
<path class="smart-ui-logo-primary__name" d="M8.77 335.21V296.57C29.25 304.77 52.8933 308.867 79.7 308.86C99.7 308.86 109.7 302.43 109.7 289.57C109.7 277.83 102.93 272.02 89.51 272.02H56.14C18.7133 272.007 0 253.267 0 215.8C0 177.267 27.3333 158 82 158C104.256 157.846 126.384 161.387 147.48 168.48V207.12C126.98 198.91 104.79 194.85 80.76 194.85C55.58 194.85 43.06 201.26 43.06 214.14C43.02 225.787 50.3333 231.617 65 231.63H94.77C135.69 231.63 156.163 250.34 156.19 287.76C156.19 326.427 130.107 345.74 77.94 345.7C52.3 345.7 29.2433 342.203 8.77 335.21ZM188.65 344V159.68H224.65L230.09 182.86C251.23 167.41 272.27 159.68 293.09 159.68C316.283 159.68 332.737 168.107 342.45 184.96C365.93 168.08 387.97 159.653 408.57 159.68C447.45 159.68 466.887 183.013 466.88 229.68V344H420.31V228C420.31 207.573 411.667 197.347 394.38 197.32C380.54 197.32 366.077 205.27 350.99 221.17V344H304.52V228.46C304.52 207.667 295.977 197.26 278.89 197.24C264.13 197.24 249.573 205.19 235.22 221.09V344H188.65ZM500.54 286.61C500.54 248.823 527.207 229.937 580.54 229.95C594.899 229.8 609.241 230.958 623.39 233.41V221.31C623.39 204.837 607.413 196.593 575.46 196.58C555.141 196.61 534.933 199.571 515.46 205.37V168.47C534.94 162.703 555.145 159.756 575.46 159.72C638.433 159.72 669.9 179.953 669.86 220.42V344H646.34L626.34 331C610.654 339.609 593.034 344.083 575.14 344C525.4 344 500.54 324.87 500.56 286.61M623.42 268.51C611.67 266.18 597.42 265.05 580.57 265.05C558.19 265.017 547 272 547 286C547 300 556.37 307.03 575.11 307.09C594.03 307.09 610.123 302.297 623.39 292.71L623.42 268.51ZM715.17 344V159.68H751.17L756.91 183.17C773.103 167.543 790.203 159.713 808.21 159.68V197.24C790.877 197.24 775.377 205.007 761.71 220.54V344H715.17ZM837 129.85H871.4L878.47 159.68H921.25V196.54H883.57V281.3C883.57 298.493 890.997 307.1 905.85 307.12H921.25V344H883.4C852.467 344 837 327.43 837 294.29V129.85Z" fill="black"></path>
</svg>