<svg id="Layer_2" xmlns="http://www.w3.org/2000/svg" viewBox="0 0 77.54 96" xmlns:xlink="http://www.w3.org/1999/xlink">
 <defs>
  <style>
   .cls-1{fill:#fff;}.cls-2{fill:#178a9e;fill-rule:evenodd;}
  </style>
 </defs>
 <g id="Layer_1-2">
  <g>
   <path class="cls-2" d="M59.25,0h-22.58C22.1,.78,15.97,9.22,14.33,13.71,7.95,32.79,3.98,57.5,1.11,75.33c-.06,.35-.11,.69-.17,1.04L.01,84.84c-.06,1.34,.07,2.79,.43,4.2,1.79,5.17,7.18,9.53,19.07,5.19h0c11.23-4.87,24.49-10.94,38.2-17.74,7.81-4.5,19.24-14.85,19.83-27.92-.11-9.69-.43-19.86-1.09-29.75h0v-.06c-.05-.81-.11-1.75-.17-2.73-.11-1.88-.23-3.9-.37-5.43-.19-1.06-.44-2.02-.75-2.89-1.9-4.24-5.64-6.28-9.57-7.26-1.79-.31-4-.37-6.34-.43Zm-.85,19.73c0-1.1-.89-1.99-1.99-1.99-12.65,0-22.9,10.25-22.9,22.9v7.54c0,6.8-5.51,12.31-12.31,12.31-1.13,0-2.05,.92-2.05,2.05v6.23c0,1.1,.89,1.99,1.99,1.99,12.65,0,22.9-10.25,22.9-22.9v-7.54c0-6.8,5.51-12.31,12.31-12.31,1.13,0,2.05-.92,2.05-2.05v-6.23Z">
   </path>
   <path class="cls-1" d="M56.41,17.75c1.1,0,1.99,.89,1.99,1.99v6.23c0,1.13-.92,2.05-2.05,2.05-6.8,0-12.31,5.51-12.31,12.31v7.54c0,12.65-10.25,22.9-22.9,22.9-1.1,0-1.99-.89-1.99-1.99v-6.23c0-1.13,.92-2.05,2.05-2.05,6.8,0,12.31-5.51,12.31-12.31v-7.54c0-12.65,10.25-22.9,22.9-22.9Z">
   </path>
  </g>
 </g>
</svg>