<?xml version="1.0" encoding="utf-8"?>
<!-- Generator: Adobe Illustrator 19.2.1, SVG Export Plug-In . SVG Version: 6.00 Build 0)  -->
<svg version="1.1" id="layer" xmlns="http://www.w3.org/2000/svg" xmlns:xlink="http://www.w3.org/1999/xlink" x="0px" y="0px"
	 viewBox="0 0 652 652" style="enable-background:new 0 0 652 652;" xml:space="preserve">
<style type="text/css">
	.st0{fill:#EBC47F;}
	.st1{fill:#009BBF;}
	.st2{fill:#1A2846;}
</style>
<path class="st0" d="M30.7,366.9h148.5l81.3,48.2l-8.7-48.2h64V218.4H30.7V366.9z M273.6,434l-97-57.5H21.1V208.9h304.1v167.5h-62.1
	L273.6,434z"/>
<path class="st1" d="M101.1,264.4l-16,3.4l10.8,12.5l-9.5,7.1L78,273l-8.5,14.4l-9.7-7.1l10.7-12.1l-16.1-3.8l3.7-11.4l14.9,6.6
	L71.8,243h12l-1.9,16.3l15.4-6.4L101.1,264.4z M108.9,322.1v-1.4V208.9H46.7v113.2l31.1-31.5L108.9,322.1z"/>
<path class="st2" d="M157.8,341.6h-14.4v-86.6h-15V243h44.4v11.9h-15V341.6z M215.9,254.8h-18.8v35.9h18.8V254.8z M215.9,341.6
	v-38.8h-18.8v38.8H183v-84.4c0-7.8,6.4-14.1,14.1-14.1h18.9c7.8,0,14.1,6.4,14.1,14.1v84.4H215.9L215.9,341.6z M260.1,342.8
	c-7.8,0-14.1-6.4-14.1-14.1v-71.5c0-7.8,6.4-14.1,14.1-14.1h19.6c7.8,0,14,6.4,14,14.1v20.7h-14.1v-23.1h-19.4V331h21.1v-28.8h-10.6
	v-12.4h23.7v38.8c0,7.8-6.2,14.1-14,14.1H260.1z M357.2,275.1h16.4v5.8h-23.4v-36h23.2v5.8h-16.3v9.3h14v5.8h-14L357.2,275.1
	L357.2,275.1z M392.5,268.7l8,12.1h-7.4l-4.7-7.8l-4.9,7.8h-7.3l8.1-12.2l-8.1-12.1h7.4l4.8,7.8l4.8-7.8h7.3L392.5,268.7z
	 M410.6,279.1v13.2h-6.4v-35.8h6.1v2c1.8-1.7,4.1-2.5,6.8-2.5c3.3,0,5.7,1.1,7.5,3.3c1.8,2.3,2.6,5.4,2.6,9.4c0,4-0.9,7.2-2.6,9.3
	c-1.8,2.2-4.3,3.3-7.6,3.3C414.3,281.4,412.2,280.7,410.6,279.1z M420.7,268.8c0-4.6-1.8-6.8-5.3-6.8c-2,0-3.6,0.6-4.7,1.7v10.2
	c1.3,1.1,2.8,1.6,4.6,1.6C418.9,275.5,420.7,273.3,420.7,268.8z M442.8,276c2.2,0,4.1-0.7,5.9-2.3l3,4.2c-2.4,2.4-5.4,3.5-9,3.5
	c-4.1,0-7.1-1.1-9-3.4c-2-2.3-2.9-5.4-2.9-9.3c0-3.7,1-6.7,2.9-9c2-2.4,4.7-3.7,8.4-3.7c3.5,0,6.1,1.1,7.7,3.1
	c1.7,2,2.5,4.6,2.5,7.5c0,1.7-0.2,3.2-0.4,4.2h-14.6c0.1,1.6,0.6,2.9,1.5,3.8C439.8,275.5,441.1,276,442.8,276z M437.5,266.2h8.9
	c0.1-0.4,0.1-0.7,0.1-0.8c0-1.4-0.4-2.4-1.2-3.1s-1.9-1.1-3.1-1.1c-1.5,0-2.7,0.5-3.5,1.4C438,263.5,437.5,264.8,437.5,266.2z
	 M463.2,260.5L463.2,260.5c1.7-2.9,3.8-4.4,6.6-4.4c1.1,0,2,0.1,2.8,0.3l-0.5,6.8c-1.4-0.3-2.7-0.5-3.9-0.5c-2.1,0-3.7,1-4.7,2.8
	v15.3h-6.4v-24.3h6.2V260.5z M479.3,252c-2.6,0-3.9-1.2-3.9-3.7c0-1.3,0.3-2.3,1.1-2.8c0.7-0.7,1.7-1,2.8-1c1.1,0,2,0.3,2.7,1
	c0.7,0.7,1.1,1.6,1.1,2.8c0,1.3-0.3,2.2-1.1,2.8C481.3,251.7,480.4,252,479.3,252z M476.2,280.9v-24.3h6.4v24.3H476.2z M499.3,276
	c2.2,0,4.1-0.7,5.9-2.3l3,4.2c-2.4,2.4-5.4,3.5-9,3.5c-4.1,0-7.1-1.1-9-3.4c-2-2.3-2.9-5.4-2.9-9.3c0-3.7,1-6.7,2.9-9
	c2-2.4,4.7-3.7,8.4-3.7c3.5,0,6.1,1.1,7.7,3.1c1.7,2,2.5,4.6,2.5,7.5c0,1.7-0.2,3.2-0.4,4.2h-14.6c0.1,1.6,0.6,2.9,1.5,3.8
	C496.2,275.5,497.5,276,499.3,276z M495.6,243.8h6.4l5.4,8.8h-5.8l-2.8-4.7l-2.8,4.7h-5.8L495.6,243.8z M493.9,266.2h8.9
	c0.1-0.4,0.1-0.7,0.1-0.8c0-1.4-0.4-2.4-1.2-3.1c-0.8-0.7-1.9-1.1-3.1-1.1c-1.5,0-2.7,0.5-3.5,1.4
	C494.4,263.5,494,264.8,493.9,266.2z M513.6,280.9v-24.3h6.3v2.8c1.5-2.2,4.1-3.3,7.5-3.3c5.5,0,8.3,3.3,8.3,9.7v15.2h-6.5v-14.4
	c0-1.5-0.3-2.7-1-3.4c-0.7-0.7-1.8-1.1-3.3-1.1c-1.9,0-3.5,0.6-4.7,1.8v17.1H513.6z M540,268.7c0-3.7,0.9-6.7,2.8-9.1
	c1.9-2.4,4.6-3.6,8.5-3.6c4.8,0,8,1.8,9.8,5.4l-4.5,3.2c-1.1-2-2.8-2.9-4.7-2.9c-3.5,0-5.2,2.4-5.2,7c0,4.7,1.7,7,5.2,7
	c2,0,3.6-1,4.7-3l4.5,3.3c-1.7,3.7-5,5.4-9.8,5.4c-3.8,0-6.6-1.2-8.5-3.6C540.9,275.5,540,272.5,540,268.7z M568.1,252
	c-2.6,0-3.9-1.2-3.9-3.7c0-1.3,0.3-2.3,1.1-2.8c0.7-0.7,1.7-1,2.8-1c1.1,0,2,0.3,2.7,1c0.7,0.7,1.1,1.6,1.1,2.8
	c0,1.3-0.3,2.2-1.1,2.8C570.1,251.7,569.1,252,568.1,252z M564.9,280.9v-24.3h6.4v24.3H564.9z M596.9,280.9h-6.1V278
	c-2,2.3-4.6,3.4-7.7,3.4c-2.1,0-3.8-0.7-5.2-2c-1.3-1.3-2-3-2-5.2c0-4.9,3.9-7.6,11.8-8.1l2.7-0.2v-1.5c0-1.1-0.3-2-0.9-2.5
	c-0.6-0.6-1.6-0.8-3-0.8c-1.2,0-2.1,0.2-2.8,0.7s-1,1-1,1.7v1h-5.6c-0.1-0.6-0.2-1.1-0.2-1.6c0-2,0.9-3.7,2.7-4.9
	c1.8-1.2,4.2-1.9,7.2-1.9c3.1,0,5.5,0.7,7.3,2c1.8,1.4,2.6,3.5,2.6,6.3L596.9,280.9L596.9,280.9z M582.5,273.9c0,1.7,1,2.6,3,2.6
	c1.9,0,3.5-0.7,4.9-2.1v-4.6l-2.6,0.4C584.2,270.8,582.5,272,582.5,273.9z M620.7,259.6l-3.6,3.8c-1.7-1.7-3.7-2.5-5.9-2.5
	c-1.1,0-1.9,0.2-2.4,0.7c-0.6,0.5-0.8,1-0.8,1.7c0,1.2,0.7,2,2.2,2.3l4.1,0.9c4.6,1.1,6.9,3.5,6.9,7.2c0,2.2-0.8,4.1-2.5,5.5
	c-1.7,1.5-4.4,2.3-8,2.3c-4.4,0-7.7-1.4-9.9-4.1l3.7-3.8c2,2.1,4.1,3.2,6.5,3.2c1.1,0,2-0.2,2.7-0.7s1-1,1-1.8c0-1.1-0.8-2-2.4-2.3
	l-4.1-1.1c-4.3-1.1-6.4-3.4-6.4-7.1c0-2,0.8-3.9,2.4-5.4s4.1-2.4,7.5-2.4C615.5,256.1,618.5,257.2,620.7,259.6z M357.2,336h14.3v5.8
	h-21.3v-36h7V336z M378.3,312.9c-2.6,0-3.9-1.2-3.9-3.7c0-1.3,0.3-2.3,1.1-2.8c0.7-0.7,1.7-1,2.8-1c1.1,0,2,0.3,2.7,1
	c0.7,0.7,1.1,1.6,1.1,2.8c0,1.3-0.3,2.2-1.1,2.8C380.4,312.6,379.4,312.9,378.3,312.9z M375.2,341.7v-24.3h6.4v24.3H375.2z
	 M396.3,322.9v10.9c0,1.7,0.9,2.6,2.7,2.6c1,0,2-0.2,2.8-0.4l0.1,5.6c-1.4,0.6-3.1,0.8-5.2,0.8c-2.4,0-4.1-0.7-5.3-2.1
	c-1.1-1.4-1.7-3.3-1.7-5.6v-11.8h-4.4V318l4.4-0.6v-5.9l6.4-1v6.9h5.4v5.4L396.3,322.9L396.3,322.9z M417.1,336.9
	c2.2,0,4.1-0.7,5.9-2.3l3,4.2c-2.4,2.4-5.4,3.5-9,3.5c-4.1,0-7.1-1.1-9-3.4c-2-2.3-2.9-5.4-2.9-9.3c0-3.7,1-6.7,2.9-9
	c2-2.4,4.7-3.7,8.4-3.7c3.5,0,6.1,1.1,7.7,3.1c1.7,2,2.5,4.6,2.5,7.5c0,1.7-0.2,3.2-0.4,4.2h-14.6c0.1,1.6,0.6,2.9,1.5,3.8
	C413.9,336.4,415.3,336.9,417.1,336.9z M411.6,327.1h8.9c0.1-0.4,0.1-0.7,0.1-0.8c0-1.4-0.4-2.4-1.2-3.1c-0.8-0.7-1.9-1.1-3.1-1.1
	c-1.5,0-2.7,0.5-3.5,1.4C412.1,324.4,411.7,325.6,411.6,327.1z M437.5,321.3L437.5,321.3c1.7-2.9,3.8-4.4,6.6-4.4
	c1.1,0,2,0.1,2.8,0.3l-0.5,6.8c-1.4-0.3-2.7-0.5-3.9-0.5c-2.1,0-3.7,1-4.7,2.8v15.3h-6.4v-24.3h6.2L437.5,321.3L437.5,321.3z
	 M469.9,341.7h-6.1v-2.8c-2,2.3-4.6,3.4-7.7,3.4c-2.1,0-3.8-0.7-5.2-2c-1.3-1.3-2-3-2-5.2c0-4.9,3.9-7.6,11.8-8.1l2.7-0.2v-1.5
	c0-1.1-0.3-2-0.9-2.5c-0.6-0.6-1.6-0.8-3-0.8c-1.2,0-2.1,0.2-2.8,0.7c-0.7,0.4-1,1-1,1.7v1h-5.5c-0.1-0.6-0.2-1.1-0.2-1.6
	c0-2,0.9-3.7,2.7-4.9s4.2-1.9,7.2-1.9c3.1,0,5.5,0.7,7.3,2c1.8,1.4,2.6,3.5,2.6,6.3V341.7z M455.5,334.8c0,1.7,1,2.6,3,2.6
	c1.9,0,3.5-0.7,4.9-2.1v-4.6l-2.6,0.4C457.3,331.6,455.5,332.9,455.5,334.8z M461.3,304.7h6.6l-4.6,8.8h-5.8L461.3,304.7z
	 M481.6,321.3L481.6,321.3c1.7-2.9,3.8-4.4,6.6-4.4c1.1,0,2,0.1,2.8,0.3l-0.5,6.8c-1.4-0.3-2.7-0.5-3.9-0.5c-2.1,0-3.7,1-4.7,2.8
	v15.3h-6.4v-24.3h6.2V321.3z M497.6,312.9c-2.6,0-3.9-1.2-3.9-3.7c0-1.3,0.3-2.3,1.1-2.8c0.7-0.7,1.7-1,2.8-1c1.1,0,2,0.3,2.7,1
	c0.7,0.7,1.1,1.6,1.1,2.8c0,1.3-0.3,2.2-1.1,2.8C499.7,312.6,498.8,312.9,497.6,312.9z M494.5,341.7v-24.3h6.4v24.3H494.5z
	 M526.4,341.7h-6.1v-2.8c-2,2.3-4.6,3.4-7.7,3.4c-2.1,0-3.8-0.7-5.2-2c-1.3-1.3-2-3-2-5.2c0-4.9,3.9-7.6,11.8-8.1l2.7-0.2v-1.5
	c0-1.1-0.3-2-0.9-2.5c-0.6-0.6-1.6-0.8-3-0.8c-1.2,0-2.1,0.2-2.8,0.7c-0.7,0.4-1,1-1,1.7v1h-5.6c-0.1-0.6-0.2-1.1-0.2-1.6
	c0-2,0.9-3.7,2.7-4.9s4.2-1.9,7.2-1.9c3.1,0,5.5,0.7,7.3,2c1.8,1.4,2.6,3.5,2.6,6.3L526.4,341.7L526.4,341.7z M512,334.8
	c0,1.7,1,2.6,3,2.6c1.9,0,3.5-0.7,4.9-2.1v-4.6l-2.6,0.4C513.8,331.6,512,332.9,512,334.8z M550.2,320.5l-3.6,3.8
	c-1.7-1.7-3.7-2.5-5.9-2.5c-1.1,0-1.9,0.2-2.4,0.7c-0.6,0.5-0.8,1-0.8,1.7c0,1.2,0.7,2,2.2,2.3l4.1,0.9c4.6,1.1,6.9,3.5,6.9,7.2
	c0,2.2-0.8,4.1-2.5,5.5c-1.7,1.5-4.4,2.3-8,2.3c-4.4,0-7.7-1.4-9.9-4.1l3.7-3.8c2,2.1,4.1,3.2,6.5,3.2c1.1,0,2-0.2,2.7-0.7
	s1-1,1-1.8c0-1.1-0.8-2-2.4-2.3l-4.1-1.1c-4.3-1.1-6.4-3.4-6.4-7.1c0-2,0.8-3.9,2.4-5.4c1.6-1.5,4.1-2.4,7.5-2.4
	C545,316.9,548.1,318.1,550.2,320.5z"/>
</svg>
