<svg xmlns="http://www.w3.org/2000/svg" viewBox="0 0 222.9 149.97"><defs><style>.cls-1{fill:#1e2959;}.cls-2{fill:#e40033;}</style></defs><g id="Camada_2" data-name="Camada 2"><g id="Layer_1" data-name="Layer 1"><path class="cls-1" d="M181.4,65.33h39a1.94,1.94,0,0,0,2.05-2V53.41a1.94,1.94,0,0,0-2.05-2H195V39.24H215.5a1.94,1.94,0,0,0,2.06-2.06V27.32a1.94,1.94,0,0,0-2.06-2.05H195V14H220a1.94,1.94,0,0,0,2.06-2.05V2.05A1.94,1.94,0,0,0,220,0H181.4a1.94,1.94,0,0,0-2.05,2.05V63.28a1.94,1.94,0,0,0,2.05,2m-54.85,0h36.36a1.94,1.94,0,0,0,2.06-2V52.59a1.94,1.94,0,0,0-2.06-2.05H140.73V2.05a1.94,1.94,0,0,0-2.06-2H126.55a1.94,1.94,0,0,0-2,2.05V63.28a1.94,1.94,0,0,0,2,2m-60.4,0h39.24a1.94,1.94,0,0,0,2-2V53.41a1.94,1.94,0,0,0-2-2H79.71V39.24h20.75a1.94,1.94,0,0,0,2.05-2.06V27.32a1.94,1.94,0,0,0-2.05-2.05H79.71V14H105a1.94,1.94,0,0,0,2-2.05V2.05a1.94,1.94,0,0,0-2-2H66.15A1.94,1.94,0,0,0,64.1,2.05V63.28a1.94,1.94,0,0,0,2.05,2m-48.07,0H30.2a1.94,1.94,0,0,0,2.05-2V14.59h14a2,2,0,0,0,2.06-2.06V2.05a1.94,1.94,0,0,0-2.06-2H2.05A1.94,1.94,0,0,0,0,2.05V12.53a1.94,1.94,0,0,0,2.05,2.06H16V63.28a1.94,1.94,0,0,0,2.06,2"/><path class="cls-2" d="M181.81,148.94h39a1.94,1.94,0,0,0,2.05-2.05V137a1.94,1.94,0,0,0-2.05-2.06H195.37V122.85h20.55a1.94,1.94,0,0,0,2.05-2v-9.86a1.94,1.94,0,0,0-2.05-2.06H195.37V97.58h25.07a1.94,1.94,0,0,0,2.05-2V85.67a1.94,1.94,0,0,0-2.05-2.06H181.81a1.94,1.94,0,0,0-2.05,2.06v61.22a1.94,1.94,0,0,0,2.05,2.05"/><path class="cls-2" d="M107.65,148.94H119a1.94,1.94,0,0,0,2-2.05V114.22l34.31,33.49a3.74,3.74,0,0,0,3.08,1.23h2.47a1.94,1.94,0,0,0,2-2.05V85.67a1.94,1.94,0,0,0-2-2.06h-11.3a2,2,0,0,0-2.06,2.06v32.87L114,84.85a3.75,3.75,0,0,0-3.08-1.24h-3.29a1.94,1.94,0,0,0-2.05,2.06v61.22a1.84,1.84,0,0,0,2.05,2.05"/><path class="cls-2" d="M74.37,148.94H86.49a1.94,1.94,0,0,0,2.05-2.05V85.67a1.94,1.94,0,0,0-2.05-2.06H74.37a2,2,0,0,0-2.06,2.06v61.22a1.94,1.94,0,0,0,2.06,2.05"/><path class="cls-2" d="M35.13,150c9.45,0,18.08-4.52,23.63-9.86,1-1,1.43-2.06,0-3.29l-6.78-7c-.83-.82-1.85-.82-2.88.2-4.31,3.49-8.42,5.14-13.35,5.14-10.07,0-17.67-7.4-17.67-19.11,0-11.91,7.81-18.69,17.67-18.69,4.52,0,8.21,1.23,12.53,4.72a1.85,1.85,0,0,0,2.87-.2l6.58-6.78a2,2,0,0,0,0-3.29,32.63,32.63,0,0,0-22.19-9.24A33.28,33.28,0,0,0,2.05,116.28C2.05,136.21,15.82,150,35.13,150"/></g></g></svg>