<?xml version="1.0" encoding="UTF-8" standalone="no"?>
<svg
   xmlns:dc="http://purl.org/dc/elements/1.1/"
   xmlns:cc="http://creativecommons.org/ns#"
   xmlns:rdf="http://www.w3.org/1999/02/22-rdf-syntax-ns#"
   xmlns:svg="http://www.w3.org/2000/svg"
   xmlns="http://www.w3.org/2000/svg"
   xmlns:sodipodi="http://sodipodi.sourceforge.net/DTD/sodipodi-0.dtd"
   xmlns:inkscape="http://www.inkscape.org/namespaces/inkscape"
   width="700"
   height="700"
   viewBox="0 0 700 700"
   version="1.1"
   id="svg6"
   sodipodi:docname="tim-logo.svg"
   style="fill:none"
   inkscape:version="0.92.4 (5da689c313, 2019-01-14)">
  <metadata
     id="metadata12">
    <rdf:RDF>
      <cc:Work
         rdf:about="">
        <dc:format>image/svg+xml</dc:format>
        <dc:type
           rdf:resource="http://purl.org/dc/dcmitype/StillImage" />
        <dc:title></dc:title>
      </cc:Work>
    </rdf:RDF>
  </metadata>
  <defs
     id="defs10" />
  <sodipodi:namedview
     pagecolor="#ffffff"
     bordercolor="#666666"
     borderopacity="1"
     objecttolerance="10"
     gridtolerance="10"
     guidetolerance="10"
     inkscape:pageopacity="0"
     inkscape:pageshadow="2"
     inkscape:window-width="1920"
     inkscape:window-height="1017"
     id="namedview8"
     showgrid="false"
     inkscape:zoom="0.36867245"
     inkscape:cx="-372.52983"
     inkscape:cy="276.79625"
     inkscape:window-x="-8"
     inkscape:window-y="-8"
     inkscape:window-maximized="1"
     inkscape:current-layer="svg6" />
  <path
     d="m 389.91954,278.98691 c 2.86358,0 3.43644,0.344 3.43644,10.4229 v 9.27752 c 0,9.62118 -0.80243,10.76654 -3.43644,10.76654 H 357.7343 v 108.46677 c 0,2.40515 -3.09244,2.97801 -13.85876,2.97801 h -5.72716 c -10.99518,0 -12.82819,-0.57286 -12.82819,-2.97801 V 309.45387 h -32.18453 c -2.63472,0 -3.43644,-0.80179 -3.43644,-10.76654 v -9.27752 c 0,-10.4229 0.57286,-10.4229 3.43644,-10.4229 z m 57.72718,3.09251 c 0,-2.06164 -2.97801,-3.09251 -13.40104,-3.09251 h -6.07045 c -10.99589,0 -12.82818,0.91629 -12.82818,3.09251 v 135.95565 c 0,2.40586 1.83229,2.97801 12.82818,2.97801 h 6.07045 c 10.42303,0 13.40104,-0.57215 13.40104,-2.97801 z m 157.14507,-3.09251 h -9.50688 c -12.1409,0 -12.82819,1.37444 -13.85876,3.43616 l -18.78421,45.01321 c -6.2993,15.00441 -12.71375,31.03932 -15.1189,39.4012 -2.29072,-8.36188 -6.41445,-19.47171 -15.11891,-40.20299 l -18.66977,-44.21142 c -1.145,-2.63437 -5.84159,-3.43616 -16.14948,-3.43616 h -10.53746 c -10.42303,0 -12.4849,0.91629 -12.4849,3.09251 v 135.95565 c 0,2.40586 2.06187,2.97801 12.82819,2.97801 h 5.84159 c 10.65189,0 13.6299,-0.57215 13.6299,-2.97801 v -80.74861 h 0.80171 c 0,0 0.91615,3.77972 2.51958,7.21588 l 21.53336,50.51108 c 0.91614,2.29073 2.06186,3.20687 12.14089,3.20687 h 6.41445 c 10.19346,0 10.99518,-0.80171 11.91133,-3.20687 l 19.70106,-48.67851 c 1.83229,-4.58151 3.20686,-9.04845 3.20686,-9.04845 h 0.80172 v 80.63418 c 0,2.40515 2.06186,2.97801 13.2859,2.97801 h 5.72716 c 10.42303,0 13.40104,-0.57286 13.40104,-2.97801 V 282.07942 c 0,-2.17622 -3.09244,-3.09251 -13.51547,-3.09251 z"
     id="path2"
     style="fill:#063b88;fill-opacity:1;stroke-width:7.10742044"
     inkscape:connector-curvature="0" />
  <path
     d="M 243.53439,309.45387 H 89.939409 c -2.290722,0 -4.352392,-0.91629 -5.841383,-2.40529 -1.488983,-1.48901 -2.405286,-3.55066 -2.405286,-5.72688 v -14.08812 c 0,-2.29072 0.916303,-4.23787 2.405286,-5.72687 1.603527,-1.60351 3.550661,-2.5198 5.841383,-2.5198 H 243.53439 c 2.29073,0 4.35259,0.91629 5.84159,2.4053 1.48901,1.489 2.40515,3.43608 2.40515,5.72687 v 13.97355 c 0,2.29079 -0.91614,4.23788 -2.40515,5.72687 -1.489,1.60351 -3.55086,2.63437 -5.84159,2.63437 z m -93.80636,25.31279 H 89.939409 c -2.290722,0 -4.352392,0.91629 -5.726847,2.4053 -1.488983,1.48893 -2.405284,3.55066 -2.405284,5.72687 v 13.97333 c 0,2.29072 0.916301,4.35259 2.405284,5.72717 1.488991,1.48901 3.550669,2.40515 5.841419,2.40515 h 59.788549 v -30.23781 z m 99.64795,2.51981 c -1.489,-1.48901 -3.55086,-2.40531 -5.84159,-2.40531 h -59.78904 v 30.35217 h 59.78904 c 2.29073,0 4.35259,-0.91614 5.84159,-2.40515 1.48901,-1.489 2.40515,-3.55087 2.40515,-5.72645 v -14.0884 c 0,-2.29071 -0.91614,-4.35244 -2.40515,-5.72686 z m 0,55.77953 c -1.489,-1.48901 -3.55086,-2.40516 -5.84159,-2.40516 h -59.78904 v 30.35225 h 59.78904 c 2.29073,0 4.35259,-0.91615 5.84159,-2.40516 1.48901,-1.48901 2.40515,-3.55087 2.40515,-5.72645 v -13.97389 c 0,-2.29072 -0.91614,-4.35258 -2.40515,-5.84159 z m -99.64795,-2.40516 H 89.939409 c -2.290722,0 -4.352392,0.91615 -5.726847,2.40515 -1.488983,1.48901 -2.405284,3.55087 -2.405284,5.72716 v 13.97319 c 0,2.29072 0.916301,4.35258 2.405284,5.72717 1.488991,1.489 3.550669,2.40515 5.841419,2.40515 h 59.788549 v -30.23781 z"
     id="path4"
     inkscape:connector-curvature="0"
     style="fill:#eb0028;stroke-width:7.10742044" />
</svg>
