<?xml version="1.0" encoding="UTF-8"?>
<svg id="Camada_2" data-name="Camada 2" xmlns="http://www.w3.org/2000/svg" viewBox="0 0 784.55 87.24">
  <defs>
    <style>
      .cls-1 {
        fill: #26d07c;
      }

      .cls-1, .cls-2 {
        stroke-width: 0px;
      }

      .cls-2 {
        fill: #fff;
      }
    </style>
  </defs>
  <g id="Branco_e_verde" data-name="Branco e verde">
    <g>
      <path class="cls-1" d="M75.24,1.44l-3.72,21.12h-22.56l-11.28,63.84H11.04l11.28-63.84H0L3.72,1.44h71.52Z"/>
      <path class="cls-1" d="M102.12,82.8c-5.44-2.96-9.64-7.14-12.6-12.54-2.96-5.4-4.44-11.58-4.44-18.54,0-10.16,2.1-19.14,6.3-26.94,4.2-7.8,10.08-13.88,17.64-18.24,7.56-4.36,16.26-6.54,26.1-6.54,7.36,0,13.78,1.46,19.26,4.38,5.48,2.92,9.7,7.04,12.66,12.36,2.96,5.32,4.44,11.46,4.44,18.42,0,10.08-2.1,19.08-6.3,27s-10.12,14.08-17.76,18.48c-7.64,4.4-16.42,6.6-26.34,6.6-7.2,0-13.52-1.48-18.96-4.44ZM136.02,59.1c3.08-2.2,5.42-5.12,7.02-8.76,1.6-3.64,2.4-7.58,2.4-11.82s-1.18-7.82-3.54-10.26c-2.36-2.44-5.74-3.66-10.14-3.66-4.16,0-7.8,1.08-10.92,3.24-3.12,2.16-5.5,5.06-7.14,8.7-1.64,3.64-2.46,7.58-2.46,11.82s1.18,7.84,3.54,10.32c2.36,2.48,5.82,3.72,10.38,3.72,4.16,0,7.78-1.1,10.86-3.3Z"/>
      <path class="cls-1" d="M267.72,1.44l-3.72,21.12h-22.56l-11.28,63.84h-26.64l11.28-63.84h-22.32l3.72-21.12h71.52Z"/>
      <path class="cls-1" d="M328.68,73.56h-28.32l-6.48,12.84h-27.96L312,1.44h30.72l15.96,84.96h-28.08l-1.92-12.84ZM325.8,53.52l-3.48-23.64-11.88,23.64h15.36Z"/>
      <path class="cls-1" d="M406.92,66.24h25.68l-3.6,20.16h-52.32L391.68,1.44h26.64l-11.4,64.8Z"/>
      <path class="cls-2" d="M520.7,39.84c-2.68,3.76-6.42,6.82-11.22,9.18-4.8,2.36-10.64,3.54-17.52,3.54h-15.12l-6,33.84h-13.68l14.76-83.4h28.8c8.4,0,14.76,1.86,19.08,5.58s6.48,8.58,6.48,14.58c0,1.04-.16,2.6-.48,4.68-.72,4.24-2.42,8.24-5.1,12ZM506.18,38.16c3-2.48,4.86-5.92,5.58-10.32.24-1.2.36-2.36.36-3.48,0-3.36-1.1-5.98-3.3-7.86-2.2-1.88-5.54-2.82-10.02-2.82h-15.12l-4.92,28.2h15.12c5.2,0,9.3-1.24,12.3-3.72Z"/>
      <path class="cls-2" d="M593.84,69.36h-34.92l-9,17.04h-14.28L580.28,2.88h15.84l15.12,83.52h-14.4l-3-17.04ZM592.04,58.68l-6.84-39.24-20.64,39.24h27.48Z"/>
      <path class="cls-2" d="M652.64,84.78c-4.08-1.64-7.32-4.04-9.72-7.2-2.4-3.16-3.6-6.9-3.6-11.22,0-.56.08-1.56.24-3h13.56c-.32,3.68.76,6.74,3.24,9.18,2.48,2.44,6.04,3.66,10.68,3.66,4.96,0,8.84-1.02,11.64-3.06,2.8-2.04,4.2-4.98,4.2-8.82,0-2.32-.7-4.3-2.1-5.94-1.4-1.64-3.16-3.02-5.28-4.14-2.12-1.12-5.06-2.44-8.82-3.96-4.96-2.08-8.92-3.96-11.88-5.64-2.96-1.68-5.5-4-7.62-6.96-2.12-2.96-3.18-6.68-3.18-11.16,0-4.96,1.28-9.3,3.84-13.02,2.56-3.72,6.1-6.58,10.62-8.58,4.52-2,9.62-3,15.3-3s10.58.94,14.7,2.82c4.12,1.88,7.24,4.52,9.36,7.92,2.12,3.4,3.06,7.38,2.82,11.94h-14.4c.32-3.28-.68-6.02-3-8.22-2.32-2.2-5.68-3.3-10.08-3.3-4.64,0-8.34,1.06-11.1,3.18-2.76,2.12-4.14,4.98-4.14,8.58,0,2.24.7,4.18,2.1,5.82,1.4,1.64,3.18,3.04,5.34,4.2,2.16,1.16,5.08,2.54,8.76,4.14,4.96,2.24,8.94,4.24,11.94,6,3,1.76,5.58,4.14,7.74,7.14,2.16,3,3.24,6.7,3.24,11.1,0,4.64-1.28,8.78-3.84,12.42-2.56,3.64-6.16,6.48-10.8,8.52-4.64,2.04-9.96,3.06-15.96,3.06-5.12,0-9.72-.82-13.8-2.46Z"/>
      <path class="cls-2" d="M736.52,84.78c-4.08-1.64-7.32-4.04-9.72-7.2-2.4-3.16-3.6-6.9-3.6-11.22,0-.56.08-1.56.24-3h13.56c-.32,3.68.76,6.74,3.24,9.18,2.48,2.44,6.04,3.66,10.68,3.66,4.96,0,8.84-1.02,11.64-3.06,2.8-2.04,4.2-4.98,4.2-8.82,0-2.32-.7-4.3-2.1-5.94-1.4-1.64-3.16-3.02-5.28-4.14-2.12-1.12-5.06-2.44-8.82-3.96-4.96-2.08-8.92-3.96-11.88-5.64-2.96-1.68-5.5-4-7.62-6.96-2.12-2.96-3.18-6.68-3.18-11.16,0-4.96,1.28-9.3,3.84-13.02,2.56-3.72,6.1-6.58,10.62-8.58,4.52-2,9.62-3,15.3-3s10.58.94,14.7,2.82c4.12,1.88,7.24,4.52,9.36,7.92,2.12,3.4,3.06,7.38,2.82,11.94h-14.4c.32-3.28-.68-6.02-3-8.22-2.32-2.2-5.68-3.3-10.08-3.3-4.64,0-8.34,1.06-11.1,3.18-2.76,2.12-4.14,4.98-4.14,8.58,0,2.24.7,4.18,2.1,5.82,1.4,1.64,3.18,3.04,5.34,4.2,2.16,1.16,5.08,2.54,8.76,4.14,4.96,2.24,8.94,4.24,11.94,6,3,1.76,5.58,4.14,7.74,7.14s3.24,6.7,3.24,11.1c0,4.64-1.28,8.78-3.84,12.42-2.56,3.64-6.16,6.48-10.8,8.52-4.64,2.04-9.96,3.06-15.96,3.06-5.12,0-9.72-.82-13.8-2.46Z"/>
    </g>
  </g>
</svg>