<svg height="1029" viewBox="-.3 0 1000.3 411.8" width="2500" xmlns="http://www.w3.org/2000/svg"><path clip-rule="evenodd" d="m921.6 303.9c-44.7 0-78.4-33.3-78.4-77.4v-48.7c0-47.7 31.5-79.8 78.4-79.8s78.4 32 78.4 79.8v15.4c0 24.6-13.6 35.1-25.2 35.1h-84.4c1.1 20.5 19.9 26.1 31.2 26.1 6.3 0 12-1.1 17.6-3.3 1.8-.7 5.5-1.9 7.3-1.9 6.8 0 9.5 6.8 9.9 7.8l10.7 23.8c.1.1 3.6 9.4-4.4 13.6-12.7 6.3-26.6 9.5-41.1 9.5zm31.2-123.6c-.3-19.5-10.8-32.7-31.3-32.7s-31 13.2-31.3 32.7zm-619.5 123.6c-44.7 0-78.4-33.3-78.4-77.4v-48.7c0-47.7 31.5-79.8 78.4-79.8s78.4 32.1 78.4 79.8v15.4c0 24.6-13.6 35.1-25.2 35.1h-84.4c1.1 20.5 19.9 26.1 31.2 26.1 6.3 0 12-1.1 17.6-3.3 1.8-.7 5.5-1.9 7.3-1.9 6.8 0 9.5 6.8 9.9 7.8l10.7 23.8c.1.1 3.6 9.4-4.4 13.6-12.7 6.3-26.6 9.5-41.1 9.5zm31.3-123.6c-.3-19.5-10.8-32.7-31.3-32.7s-31 13.2-31.3 32.7zm336.4 123.6c-47.5 0-83.3-33.7-83.3-78.3v-46.9c0-48.2 33.5-80.7 83.3-80.7s83.3 32.4 83.3 80.7v46.9c0 44.6-35.8 78.3-83.3 78.3m0-157.2c-21 0-31.6 9.8-31.6 29v52.9c0 21.1 19.9 26.7 31.6 26.7s31.6-5.6 31.6-26.7v-52.9c0-19.3-10.6-29-31.6-29m-166.7 265.1c-35.1 0-66.8-14.1-89.3-39.7-2.8-3.1-4.1-6.3-3.8-9.5.4-4.4 3.6-7 4.3-7.5l22.6-18.4c.7-.6 3.9-3.3 8.3-3.3 3.3 0 6.4 1.5 9.2 4.4 12.4 12.6 29.7 19.5 48.7 19.5s36.3-7 48.8-19.6c2.7-2.9 5.8-4.4 9.1-4.4 4.4 0 7.6 2.7 8.3 3.3l22.6 18.4c.7.5 3.9 3.1 4.3 7.5.3 3.3-1 6.5-3.8 9.6-22.5 25.6-54.2 39.7-89.3 39.7m22.3-107.9c-39.7 0-66.4-28.8-66.4-71.6v-223.1c0-5.1 3.9-9.2 8.7-9.2h32.6c4.8 0 8.7 4.1 8.7 9.2v219.9c0 13.6 5.9 20.5 17.6 20.5h11.9c4.8 0 8.7 4.1 8.7 9.2v35.9c0 5.1-3.9 9.2-8.7 9.2zm-351.6-180.3c-1.1-2.2-2.9-3.8-5.3-4.6l-32.5-10.6c-1-.3-2-.5-3.1-.5-3.9 0-7.6 2.5-8.8 6.2l-34.3 116.1c-.9 3-1.9 5.8-3 8.4-2.7 6.1-8.8 10.2-15.1 10.2s-12.4-4.1-15.1-10.2c-1.1-2.5-2.1-5.3-3-8.4l-34.3-116.2c-1.1-3.7-4.8-6.2-8.8-6.2-1 0-2.1.2-3.1.5l-32.4 10.7c-2.4.8-4.2 2.5-5.3 4.6-1.1 2.2-1.2 4.6-.4 6.9l38.4 126c5.8 18.1 17.2 32 33.6 40.5 12.5 6.3 24.2 7 28.6 7h3.6c4.4 0 16.1-.7 28.6-7 16.4-8.4 27.7-22.3 33.6-40.5l38.4-126c.9-2.2.7-4.7-.3-6.9" fill="#24206b" fill-rule="evenodd"/></svg>