<svg width="684" height="224" xmlns="http://www.w3.org/2000/svg"><g fill="none" fill-rule="evenodd"><path d="M343.675 156C312.437 156 294 136.171 294 107.99V46h28.633v62.828c0 6.053 2.172 20.455 21.042 20.455 12.582 0 21.69-8.557 21.69-20.455V46H394v61.99c0 27.349-19.959 48.01-50.325 48.01M456.952 156c-28.43 0-49.48-14.44-52.952-37.669h29.08c3.906 9.212 15.408 12.558 23.872 12.558 11.503 0 20.185-3.346 20.185-9.626 0-6.067-3.907-8.58-23.438-11.51-19.965-2.93-46.66-8.159-46.66-32.227 0-16.947 15.405-34.526 47.744-34.526 25.607 0 44.706 13.393 48.394 33.691h-29.732c-1.736-5.022-8.03-8.997-18.662-8.997-13.24 0-18.663 4.602-18.663 8.578 0 5.65 8.246 7.533 22.134 9.626C486.034 90.292 506 96.152 506 119.588 506 140.935 485.6 156 456.952 156M571.122 67.273c13.68 0 24.54 7.953 28.015 20.51h-55.6c4.127-12.557 14.551-20.51 27.585-20.51zm23.672 51.897c-4.78 8.579-14.118 12.554-23.672 12.554-13.466 0-24.326-8.158-28.017-21.343h84.482C631.714 67.694 604.35 43 571.337 43 539.844 43 514 68.53 514 99.709c0 31.18 25.845 56.291 57.336 56.291 22.74 0 40.097-9.942 49.23-25.585l-25.772-11.245zM132.988 156h-27.974v-37.472L56 46h31.343l31.551 44.879L150.66 46H182l-49.012 72.528z" fill="#FFB81C"/><path d="M256.042 99.918c0-18.623-12.408-31.598-27.65-31.598-15.243 0-27.653 12.975-27.653 31.598 0 18.208 12.41 30.76 27.653 30.76 15.242 0 27.65-12.552 27.65-30.76m28.958-.21C285 131.936 259.526 156 228.392 156 197.256 156 172 131.935 172 99.709S197.256 43 228.392 43C259.526 43 285 67.483 285 99.709M285 189c0-13.877-11.187-22-24.983-22h-63.032c-13.8 0-24.985 8.123-24.985 22h113z" fill="#FFF"/></g></svg>